# Blender 5.1.1
# www.blender.org
mtllib rock1.mtl
o Sphere.006_Asteroid_0
v -0.241268 0.581492 0.103296
v -0.178101 0.569948 0.081466
v -0.201617 0.615574 0.135151
v -0.075704 0.500481 -0.281833
v -0.035930 0.505367 -0.284560
v -0.016605 0.418425 -0.307688
v 0.100793 0.867031 -0.009946
v 0.110663 0.859366 -0.083592
v 0.044402 0.867156 -0.080601
v 0.143612 0.053695 -0.134731
v 0.214829 0.071676 -0.084194
v 0.127219 -0.008983 -0.041109
v -0.009209 0.238544 -0.281762
v -0.016605 0.418425 -0.307688
v 0.074990 0.293935 -0.291237
v 0.074990 0.293935 -0.291237
v 0.145805 0.207146 -0.216387
v 0.058302 0.157124 -0.244382
v -0.284825 0.528533 -0.020371
v -0.251767 0.455184 -0.059451
v -0.228255 0.510105 -0.001927
v 0.140233 0.105307 -0.180600
v 0.058302 0.157124 -0.244382
v 0.183305 0.127612 -0.169893
v 0.030737 0.648051 -0.257918
v 0.054063 0.557019 -0.246700
v -0.035930 0.505367 -0.284560
v 0.143612 0.053695 -0.134731
v 0.201845 0.084875 -0.115082
v 0.214829 0.071676 -0.084194
v -0.016605 0.418425 -0.307688
v 0.130271 0.319738 -0.274147
v 0.074990 0.293935 -0.291237
v 0.183305 0.127612 -0.169893
v 0.257859 0.123898 -0.094055
v 0.201845 0.084875 -0.115082
v -0.016605 0.418425 -0.307688
v 0.054063 0.557019 -0.246700
v 0.130271 0.319738 -0.274147
v 0.106171 0.826062 -0.147504
v 0.110663 0.859366 -0.083592
v 0.171549 0.815484 -0.124934
v 0.158633 0.008406 -0.013170
v 0.214829 0.071676 -0.084194
v 0.205326 0.063990 -0.015397
v 0.171549 0.815484 -0.124934
v 0.216119 0.757867 -0.111494
v 0.191849 0.741945 -0.153015
v 0.130271 0.319738 -0.274147
v 0.199523 0.387029 -0.191289
v 0.223841 0.328576 -0.160278
v 0.145805 0.207146 -0.216387
v 0.223841 0.328576 -0.160278
v 0.261699 0.194295 -0.117351
v 0.091802 0.565084 -0.217699
v 0.158540 0.529175 -0.126484
v 0.199523 0.387029 -0.191289
v 0.183305 0.127612 -0.169893
v 0.122885 0.181550 -0.154911
v 0.140233 0.105307 -0.180600
v 0.157624 0.664913 -0.172931
v 0.161822 0.633223 -0.114176
v 0.091802 0.565084 -0.217699
v 0.199523 0.387029 -0.191289
v 0.158540 0.529175 -0.126484
v 0.251901 0.394596 -0.015002
v 0.171549 0.815484 -0.124934
v 0.225517 0.801079 -0.038685
v 0.216119 0.757867 -0.111494
v 0.199523 0.387029 -0.191289
v 0.251901 0.394596 -0.015002
v 0.223841 0.328576 -0.160278
v -0.035961 0.006160 0.013796
v -0.033541 0.077587 0.010059
v -0.083858 0.111900 0.045251
v 0.257859 0.123898 -0.094055
v 0.261423 0.104821 -0.041077
v 0.214829 0.071676 -0.084194
v 0.223841 0.328576 -0.160278
v 0.251901 0.394596 -0.015002
v 0.299233 0.216262 -0.019757
v 0.261699 0.194295 -0.117351
v 0.299233 0.216262 -0.019757
v 0.257859 0.123898 -0.094055
v 0.110663 0.859366 -0.083592
v 0.100793 0.867031 -0.009946
v 0.129438 0.854307 0.017302
v 0.177783 0.602986 -0.071603
v 0.221897 0.475595 -0.010011
v 0.158540 0.529175 -0.126484
v 0.225517 0.801079 -0.038685
v 0.258688 0.729950 0.021453
v 0.251460 0.725686 -0.057866
v 0.183276 0.589219 -0.016152
v 0.251460 0.725686 -0.057866
v 0.258688 0.729950 0.021453
v 0.261423 0.104821 -0.041077
v 0.299233 0.216262 -0.019757
v 0.248884 0.140558 0.064316
v 0.177783 0.602986 -0.071603
v 0.183276 0.589219 -0.016152
v 0.221897 0.475595 -0.010011
v 0.299233 0.216262 -0.019757
v 0.304319 0.241360 0.039503
v 0.248884 0.140558 0.064316
v 0.221897 0.475595 -0.010011
v 0.223186 0.450111 0.059714
v 0.251901 0.394596 -0.015002
v 0.251901 0.394596 -0.015002
v 0.223186 0.450111 0.059714
v 0.304319 0.241360 0.039503
v 0.304319 0.241360 0.039503
v 0.280808 0.242691 0.083736
v 0.248884 0.140558 0.064316
v 0.183276 0.589219 -0.016152
v 0.207347 0.674431 0.098896
v 0.132871 0.596694 0.124954
v 0.225517 0.801079 -0.038685
v 0.129438 0.854307 0.017302
v 0.240772 0.761060 0.058275
v 0.225517 0.801079 -0.038685
v 0.240772 0.761060 0.058275
v 0.258688 0.729950 0.021453
v 0.223186 0.450111 0.059714
v 0.224474 0.355828 0.145767
v 0.304319 0.241360 0.039503
v 0.304319 0.241360 0.039503
v 0.224474 0.355828 0.145767
v 0.280808 0.242691 0.083736
v 0.258688 0.729950 0.021453
v 0.240772 0.761060 0.058275
v 0.207347 0.674431 0.098896
v 0.167438 0.585799 0.053281
v 0.132871 0.596694 0.124954
v 0.134289 0.501920 0.170175
v 0.223186 0.450111 0.059714
v 0.134289 0.501920 0.170175
v 0.224474 0.355828 0.145767
v 0.240772 0.761060 0.058275
v 0.163542 0.787391 0.105499
v 0.138944 0.743423 0.153440
v 0.224474 0.355828 0.145767
v 0.229787 0.285959 0.149445
v 0.280808 0.242691 0.083736
v -0.115800 0.298162 0.250140
v -0.116795 0.328416 0.207607
v -0.147852 0.393733 0.263182
v -0.099687 0.280199 -0.266110
v -0.091022 0.239869 -0.197243
v -0.101764 0.321210 -0.227500
v 0.207347 0.674431 0.098896
v 0.138944 0.743423 0.153440
v 0.097241 0.637626 0.147896
v 0.207347 0.674431 0.098896
v 0.097241 0.637626 0.147896
v 0.132871 0.596694 0.124954
v -0.099687 0.280199 -0.266110
v -0.101764 0.321210 -0.227500
v -0.192631 0.381044 -0.266322
v 0.224474 0.355828 0.145767
v 0.080829 0.486724 0.217334
v 0.161406 0.357941 0.217641
v 0.210853 0.130862 0.136934
v 0.191978 0.089708 0.114831
v 0.248884 0.140558 0.064316
v 0.138944 0.743423 0.153440
v 0.163542 0.787391 0.105499
v 0.096285 0.762709 0.160793
v 0.097241 0.637626 0.147896
v 0.065272 0.706511 0.197206
v 0.004464 0.594929 0.238071
v 0.080829 0.486724 0.217334
v -0.001007 0.406724 0.261101
v 0.104267 0.353000 0.253712
v 0.205326 0.063990 -0.015397
v 0.138891 0.014096 0.033855
v 0.158633 0.008406 -0.013170
v 0.080829 0.486724 0.217334
v 0.104267 0.353000 0.253712
v 0.161406 0.357941 0.217641
v 0.138944 0.743423 0.153440
v 0.096285 0.762709 0.160793
v 0.065272 0.706511 0.197206
v 0.032304 0.563378 0.218836
v 0.004464 0.594929 0.238071
v -0.082576 0.501375 0.264031
v 0.032304 0.563378 0.218836
v -0.082576 0.501375 0.264031
v -0.001007 0.406724 0.261101
v 0.129438 0.854307 0.017302
v 0.100793 0.867031 -0.009946
v 0.068903 0.842398 0.060008
v 0.104267 0.353000 0.253712
v 0.017586 0.304515 0.258041
v 0.090101 0.163306 0.216774
v 0.065272 0.706511 0.197206
v 0.096285 0.762709 0.160793
v -0.013480 0.675194 0.219639
v 0.191978 0.089708 0.114831
v 0.091326 0.052561 0.131723
v 0.138891 0.014096 0.033855
v -0.147852 0.393733 0.263182
v -0.123870 0.447647 0.205925
v -0.082576 0.501375 0.264031
v 0.017586 0.304515 0.258041
v -0.033296 0.266760 0.252562
v 0.090101 0.163306 0.216774
v -0.082576 0.501375 0.264031
v -0.054978 0.572554 0.242349
v -0.185979 0.439097 0.250345
v -0.115800 0.298162 0.250140
v -0.187100 0.236420 0.210762
v -0.033296 0.266760 0.252562
v 0.068903 0.842398 0.060008
v -0.015110 0.796131 0.072166
v 0.096285 0.762709 0.160793
v -0.033296 0.266760 0.252562
v -0.187100 0.236420 0.210762
v -0.176854 0.184773 0.160049
v -0.013480 0.675194 0.219639
v -0.013201 0.743919 0.149843
v -0.148834 0.627076 0.186120
v 0.029803 0.156125 0.212869
v 0.025560 0.012907 0.075450
v 0.091326 0.052561 0.131723
v -0.147852 0.393733 0.263182
v -0.185979 0.439097 0.250345
v -0.231473 0.267110 0.209675
v -0.032541 0.127256 0.170871
v -0.176854 0.184773 0.160049
v -0.111305 0.095485 0.135153
v -0.032541 0.127256 0.170871
v -0.037220 0.047675 0.109895
v 0.025560 0.012907 0.075450
v -0.148834 0.627076 0.186120
v -0.201617 0.615574 0.135151
v -0.260526 0.468646 0.177343
v -0.185979 0.439097 0.250345
v -0.260526 0.468646 0.177343
v -0.293479 0.384658 0.165737
v -0.013201 0.743919 0.149843
v -0.015110 0.796131 0.072166
v -0.090320 0.796760 -0.039930
v -0.148834 0.627076 0.186120
v -0.087511 0.723914 0.095660
v -0.201617 0.615574 0.135151
v -0.129971 0.197423 -0.222026
v -0.091022 0.239869 -0.197243
v -0.099687 0.280199 -0.266110
v 0.025560 0.012907 0.075450
v 0.051213 -0.020140 0.026416
v 0.138891 0.014096 0.033855
v -0.187100 0.236420 0.210762
v -0.231473 0.267110 0.209675
v -0.176854 0.184773 0.160049
v -0.111305 0.095485 0.135153
v -0.198077 0.108393 0.057894
v -0.083410 0.033583 0.069386
v -0.111305 0.095485 0.135153
v -0.083410 0.033583 0.069386
v -0.037220 0.047675 0.109895
v 0.280808 0.242691 0.083736
v 0.212751 0.272980 0.053961
v 0.248884 0.140558 0.064316
v -0.241268 0.581492 0.103296
v -0.201617 0.615574 0.135151
v -0.292540 0.503558 0.023342
v -0.290542 0.292239 0.135312
v -0.321820 0.375045 0.049958
v -0.285066 0.254311 0.005203
v 0.051213 -0.020140 0.026416
v 0.127219 -0.008983 -0.041109
v 0.138891 0.014096 0.033855
v -0.087511 0.723914 0.095660
v -0.090320 0.796760 -0.039930
v -0.136905 0.738608 -0.027092
v -0.035961 0.006160 0.013796
v -0.111797 0.034444 0.007592
v 0.026730 -0.026157 -0.059205
v -0.198077 0.108393 0.057894
v -0.148342 0.083054 -0.121813
v -0.111797 0.034444 0.007592
v -0.111797 0.034444 0.007592
v -0.148342 0.083054 -0.121813
v 0.026730 -0.026157 -0.059205
v -0.022660 0.838048 -0.011765
v 0.044402 0.867156 -0.080601
v 0.000550 0.848447 -0.103605
v -0.198077 0.108393 0.057894
v -0.245011 0.207483 -0.122495
v -0.148342 0.083054 -0.121813
v -0.136905 0.738608 -0.027092
v -0.090320 0.796760 -0.039930
v -0.180103 0.658061 -0.156545
v -0.136905 0.738608 -0.027092
v -0.180103 0.658061 -0.156545
v -0.202982 0.682126 -0.010891
v -0.148342 0.083054 -0.121813
v -0.065389 0.033127 -0.114653
v 0.026730 -0.026157 -0.059205
v -0.022660 0.838048 -0.011765
v 0.100793 0.867031 -0.009946
v 0.044402 0.867156 -0.080601
v 0.000550 0.848447 -0.103605
v -0.034365 0.804592 -0.135867
v -0.090320 0.796760 -0.039930
v -0.180103 0.658061 -0.156545
v -0.232155 0.555757 -0.176446
v -0.266183 0.535605 -0.139532
v -0.309173 0.374878 -0.081121
v -0.235467 0.334742 -0.212710
v -0.297209 0.278997 -0.053862
v -0.245011 0.207483 -0.122495
v -0.218556 0.268296 -0.202025
v -0.129971 0.197423 -0.222026
v 0.026730 -0.026157 -0.059205
v 0.059123 0.007001 -0.131597
v 0.127219 -0.008983 -0.041109
v -0.235467 0.334742 -0.212710
v -0.218556 0.268296 -0.202025
v -0.245011 0.207483 -0.122495
v -0.034365 0.804592 -0.135867
v -0.086531 0.652587 -0.233770
v -0.180103 0.658061 -0.156545
v -0.180103 0.658061 -0.156545
v -0.086531 0.652587 -0.233770
v -0.232155 0.555757 -0.176446
v -0.232155 0.555757 -0.176446
v -0.192631 0.381044 -0.266322
v -0.235467 0.334742 -0.212710
v 0.143612 0.053695 -0.134731
v 0.112044 0.111218 -0.105042
v 0.201845 0.084875 -0.115082
v 0.059123 0.007001 -0.131597
v 0.058302 0.157124 -0.244382
v 0.140233 0.105307 -0.180600
v -0.086531 0.652587 -0.233770
v -0.075704 0.500481 -0.281833
v -0.192631 0.381044 -0.266322
v 0.000550 0.848447 -0.103605
v 0.106171 0.826062 -0.147504
v -0.034365 0.804592 -0.135867
v 0.088379 0.769464 -0.197478
v 0.050340 0.734735 -0.234051
v -0.034365 0.804592 -0.135867
v -0.192631 0.381044 -0.266322
v -0.016605 0.418425 -0.307688
v -0.099687 0.280199 -0.266110
v -0.099687 0.280199 -0.266110
v -0.016605 0.418425 -0.307688
v -0.009209 0.238544 -0.281762
v 0.044402 0.867156 -0.080601
v 0.106171 0.826062 -0.147504
v 0.000550 0.848447 -0.103605
v 0.122885 0.181550 -0.154911
v 0.158284 0.149428 -0.106305
v 0.112044 0.111218 -0.105042
v 0.194167 0.690335 -0.061726
v 0.129027 0.605251 -0.098951
v 0.111893 0.637797 -0.145618
v 0.212751 0.272980 0.053961
v 0.184369 0.299876 0.107707
v 0.186465 0.239029 0.113295
v 0.212751 0.272980 0.053961
v 0.186465 0.239029 0.113295
v 0.184766 0.162595 0.071948
v 0.042980 0.597213 0.138626
v 0.010800 0.523657 0.176303
v 0.108618 0.456965 0.145094
v -0.071230 0.487232 0.208427
v -0.116795 0.328416 0.207607
v 0.018984 0.326728 0.203889
v 0.018984 0.326728 0.203889
v -0.116795 0.328416 0.207607
v -0.025452 0.276630 0.195732
v -0.041038 0.118144 0.089142
v -0.083858 0.111900 0.045251
v 0.013514 0.079421 0.062746
v -0.083858 0.111900 0.045251
v -0.033541 0.077587 0.010059
v 0.013514 0.079421 0.062746
v -0.262620 0.375091 0.037863
v -0.237349 0.310342 -0.069017
v -0.224514 0.274400 0.004435
v -0.262620 0.375091 0.037863
v -0.251767 0.455184 -0.059451
v -0.237349 0.310342 -0.069017
v -0.157630 0.248492 -0.166026
v -0.182001 0.384729 -0.205497
v -0.101764 0.321210 -0.227500
v 0.201845 0.084875 -0.115082
v 0.112044 0.111218 -0.105042
v 0.158284 0.149428 -0.106305
v 0.216119 0.757867 -0.111494
v 0.194167 0.690335 -0.061726
v 0.111893 0.637797 -0.145618
v -0.309173 0.374878 -0.081121
v -0.251767 0.455184 -0.059451
v -0.284825 0.528533 -0.020371
v -0.075704 0.500481 -0.281833
v -0.056540 0.461031 -0.239740
v -0.035930 0.505367 -0.284560
v -0.309173 0.374878 -0.081121
v -0.237349 0.310342 -0.069017
v -0.251767 0.455184 -0.059451
v -0.260526 0.468646 0.177343
v -0.180801 0.534192 0.134119
v -0.246359 0.391453 0.118084
v -0.001007 0.406724 0.261101
v 0.018984 0.326728 0.203889
v 0.017586 0.304515 0.258041
v 0.251460 0.725686 -0.057866
v 0.194167 0.690335 -0.061726
v 0.216119 0.757867 -0.111494
v -0.001007 0.406724 0.261101
v -0.071230 0.487232 0.208427
v 0.018984 0.326728 0.203889
v 0.157624 0.664913 -0.172931
v 0.111893 0.637797 -0.145618
v 0.129027 0.605251 -0.098951
v 0.157624 0.664913 -0.172931
v 0.129027 0.605251 -0.098951
v 0.161822 0.633223 -0.114176
v 0.161822 0.633223 -0.114176
v 0.129027 0.605251 -0.098951
v 0.251460 0.725686 -0.057866
v -0.235467 0.334742 -0.212710
v -0.204454 0.334746 -0.176048
v -0.218556 0.268296 -0.202025
v -0.284825 0.528533 -0.020371
v -0.228255 0.510105 -0.001927
v -0.292540 0.503558 0.023342
v 0.106171 0.826062 -0.147504
v 0.044402 0.867156 -0.080601
v 0.110663 0.859366 -0.083592
v 0.158633 0.008406 -0.013170
v 0.127219 -0.008983 -0.041109
v 0.214829 0.071676 -0.084194
v 0.050340 0.734735 -0.234051
v 0.088379 0.769464 -0.197478
v 0.100893 0.697427 -0.237021
v 0.050340 0.734735 -0.234051
v 0.100893 0.697427 -0.237021
v 0.030737 0.648051 -0.257918
v 0.229787 0.285959 0.149445
v 0.204248 0.192508 0.170427
v 0.146965 0.255910 0.141523
v 0.145805 0.207146 -0.216387
v 0.074990 0.293935 -0.291237
v 0.130271 0.319738 -0.274147
v 0.088379 0.769464 -0.197478
v 0.191849 0.741945 -0.153015
v 0.100893 0.697427 -0.237021
v 0.183305 0.127612 -0.169893
v 0.058302 0.157124 -0.244382
v 0.145805 0.207146 -0.216387
v 0.030737 0.648051 -0.257918
v 0.100893 0.697427 -0.237021
v 0.054063 0.557019 -0.246700
v -0.293479 0.384658 0.165737
v -0.260526 0.468646 0.177343
v -0.246359 0.391453 0.118084
v -0.035930 0.505367 -0.284560
v 0.054063 0.557019 -0.246700
v -0.016605 0.418425 -0.307688
v 0.100893 0.697427 -0.237021
v 0.191849 0.741945 -0.153015
v 0.157624 0.664913 -0.172931
v 0.100893 0.697427 -0.237021
v 0.157624 0.664913 -0.172931
v 0.054063 0.557019 -0.246700
v 0.088379 0.769464 -0.197478
v 0.106171 0.826062 -0.147504
v 0.171549 0.815484 -0.124934
v 0.088379 0.769464 -0.197478
v 0.171549 0.815484 -0.124934
v 0.191849 0.741945 -0.153015
v 0.257859 0.123898 -0.094055
v 0.183305 0.127612 -0.169893
v 0.261699 0.194295 -0.117351
v 0.054063 0.557019 -0.246700
v 0.157624 0.664913 -0.172931
v 0.091802 0.565084 -0.217699
v 0.201845 0.084875 -0.115082
v 0.257859 0.123898 -0.094055
v 0.214829 0.071676 -0.084194
v 0.130271 0.319738 -0.274147
v 0.054063 0.557019 -0.246700
v 0.091802 0.565084 -0.217699
v 0.130271 0.319738 -0.274147
v 0.091802 0.565084 -0.217699
v 0.199523 0.387029 -0.191289
v 0.145805 0.207146 -0.216387
v 0.130271 0.319738 -0.274147
v 0.223841 0.328576 -0.160278
v 0.183305 0.127612 -0.169893
v 0.145805 0.207146 -0.216387
v 0.261699 0.194295 -0.117351
v 0.091802 0.565084 -0.217699
v 0.177783 0.602986 -0.071603
v 0.158540 0.529175 -0.126484
v 0.091802 0.565084 -0.217699
v 0.161822 0.633223 -0.114176
v 0.177783 0.602986 -0.071603
v 0.171549 0.815484 -0.124934
v 0.110663 0.859366 -0.083592
v 0.225517 0.801079 -0.038685
v -0.083410 0.033583 0.069386
v -0.035961 0.006160 0.013796
v -0.083858 0.111900 0.045251
v -0.201617 0.615574 0.135151
v -0.178101 0.569948 0.081466
v -0.180801 0.534192 0.134119
v 0.205326 0.063990 -0.015397
v 0.214829 0.071676 -0.084194
v 0.261423 0.104821 -0.041077
v 0.216119 0.757867 -0.111494
v 0.225517 0.801079 -0.038685
v 0.251460 0.725686 -0.057866
v 0.261699 0.194295 -0.117351
v 0.223841 0.328576 -0.160278
v 0.299233 0.216262 -0.019757
v 0.161822 0.633223 -0.114176
v 0.251460 0.725686 -0.057866
v 0.183276 0.589219 -0.016152
v 0.161822 0.633223 -0.114176
v 0.183276 0.589219 -0.016152
v 0.177783 0.602986 -0.071603
v 0.257859 0.123898 -0.094055
v 0.299233 0.216262 -0.019757
v 0.261423 0.104821 -0.041077
v 0.225517 0.801079 -0.038685
v 0.110663 0.859366 -0.083592
v 0.129438 0.854307 0.017302
v 0.158540 0.529175 -0.126484
v 0.221897 0.475595 -0.010011
v 0.251901 0.394596 -0.015002
v 0.299233 0.216262 -0.019757
v 0.251901 0.394596 -0.015002
v 0.304319 0.241360 0.039503
v 0.205326 0.063990 -0.015397
v 0.261423 0.104821 -0.041077
v 0.248884 0.140558 0.064316
v 0.183276 0.589219 -0.016152
v 0.258688 0.729950 0.021453
v 0.207347 0.674431 0.098896
v 0.167438 0.585799 0.053281
v 0.183276 0.589219 -0.016152
v 0.132871 0.596694 0.124954
v 0.223186 0.450111 0.059714
v 0.167438 0.585799 0.053281
v 0.134289 0.501920 0.170175
v 0.248884 0.140558 0.064316
v 0.191978 0.089708 0.114831
v 0.205326 0.063990 -0.015397
v 0.224474 0.355828 0.145767
v 0.134289 0.501920 0.170175
v 0.080829 0.486724 0.217334
v 0.240772 0.761060 0.058275
v 0.129438 0.854307 0.017302
v 0.163542 0.787391 0.105499
v 0.224474 0.355828 0.145767
v 0.161406 0.357941 0.217641
v 0.229787 0.285959 0.149445
v 0.207347 0.674431 0.098896
v 0.240772 0.761060 0.058275
v 0.138944 0.743423 0.153440
v -0.192631 0.381044 -0.266322
v -0.101764 0.321210 -0.227500
v -0.182001 0.384729 -0.205497
v 0.097241 0.637626 0.147896
v 0.138944 0.743423 0.153440
v 0.065272 0.706511 0.197206
v 0.097241 0.637626 0.147896
v 0.004464 0.594929 0.238071
v 0.066210 0.633135 0.192581
v 0.251460 0.725686 -0.057866
v 0.129027 0.605251 -0.098951
v 0.194167 0.690335 -0.061726
v 0.032304 0.563378 0.218836
v 0.066210 0.633135 0.192581
v 0.004464 0.594929 0.238071
v 0.080829 0.486724 0.217334
v 0.032304 0.563378 0.218836
v -0.001007 0.406724 0.261101
v 0.204248 0.192508 0.170427
v 0.104267 0.353000 0.253712
v 0.090101 0.163306 0.216774
v 0.204248 0.192508 0.170427
v 0.090101 0.163306 0.216774
v 0.210853 0.130862 0.136934
v 0.205326 0.063990 -0.015397
v 0.191978 0.089708 0.114831
v 0.138891 0.014096 0.033855
v 0.129438 0.854307 0.017302
v 0.068903 0.842398 0.060008
v 0.163542 0.787391 0.105499
v 0.104267 0.353000 0.253712
v -0.001007 0.406724 0.261101
v 0.017586 0.304515 0.258041
v -0.082576 0.501375 0.264031
v 0.004464 0.594929 0.238071
v -0.054978 0.572554 0.242349
v 0.163542 0.787391 0.105499
v 0.068903 0.842398 0.060008
v 0.096285 0.762709 0.160793
v 0.210853 0.130862 0.136934
v 0.248884 0.140558 0.064316
v 0.184766 0.162595 0.071948
v 0.090101 0.163306 0.216774
v -0.033296 0.266760 0.252562
v 0.029803 0.156125 0.212869
v -0.013480 0.675194 0.219639
v 0.096285 0.762709 0.160793
v -0.013201 0.743919 0.149843
v -0.147852 0.393733 0.263182
v -0.082576 0.501375 0.264031
v -0.185979 0.439097 0.250345
v -0.033296 0.266760 0.252562
v -0.032541 0.127256 0.170871
v 0.029803 0.156125 0.212869
v 0.090101 0.163306 0.216774
v 0.029803 0.156125 0.212869
v 0.091326 0.052561 0.131723
v -0.115800 0.298162 0.250140
v -0.147852 0.393733 0.263182
v -0.231473 0.267110 0.209675
v -0.115800 0.298162 0.250140
v -0.231473 0.267110 0.209675
v -0.187100 0.236420 0.210762
v -0.033296 0.266760 0.252562
v -0.176854 0.184773 0.160049
v -0.032541 0.127256 0.170871
v 0.029803 0.156125 0.212869
v -0.032541 0.127256 0.170871
v 0.025560 0.012907 0.075450
v -0.054978 0.572554 0.242349
v -0.013480 0.675194 0.219639
v -0.148834 0.627076 0.186120
v -0.185979 0.439097 0.250345
v -0.054978 0.572554 0.242349
v -0.148834 0.627076 0.186120
v -0.013201 0.743919 0.149843
v 0.096285 0.762709 0.160793
v -0.015110 0.796131 0.072166
v -0.032541 0.127256 0.170871
v -0.111305 0.095485 0.135153
v -0.037220 0.047675 0.109895
v -0.148834 0.627076 0.186120
v -0.013201 0.743919 0.149843
v -0.087511 0.723914 0.095660
v -0.185979 0.439097 0.250345
v -0.148834 0.627076 0.186120
v -0.260526 0.468646 0.177343
v 0.138891 0.014096 0.033855
v 0.091326 0.052561 0.131723
v 0.025560 0.012907 0.075450
v -0.231473 0.267110 0.209675
v -0.185979 0.439097 0.250345
v -0.293479 0.384658 0.165737
v -0.087511 0.723914 0.095660
v -0.013201 0.743919 0.149843
v -0.090320 0.796760 -0.039930
v 0.132871 0.596694 0.124954
v 0.097241 0.637626 0.147896
v 0.106806 0.585959 0.091551
v -0.231473 0.267110 0.209675
v -0.293479 0.384658 0.165737
v -0.290542 0.292239 0.135312
v -0.305239 0.434098 0.107799
v -0.246359 0.391453 0.118084
v -0.246020 0.472002 0.086141
v -0.293479 0.384658 0.165737
v -0.305239 0.434098 0.107799
v -0.321820 0.375045 0.049958
v -0.290542 0.292239 0.135312
v -0.293479 0.384658 0.165737
v -0.321820 0.375045 0.049958
v 0.068903 0.842398 0.060008
v -0.022660 0.838048 -0.011765
v -0.015110 0.796131 0.072166
v -0.176854 0.184773 0.160049
v -0.231473 0.267110 0.209675
v -0.290542 0.292239 0.135312
v -0.305239 0.434098 0.107799
v -0.241268 0.581492 0.103296
v -0.292540 0.503558 0.023342
v -0.305239 0.434098 0.107799
v -0.292540 0.503558 0.023342
v -0.321820 0.375045 0.049958
v 0.025560 0.012907 0.075450
v -0.035961 0.006160 0.013796
v 0.051213 -0.020140 0.026416
v 0.138891 0.014096 0.033855
v 0.127219 -0.008983 -0.041109
v 0.158633 0.008406 -0.013170
v -0.290542 0.292239 0.135312
v -0.285066 0.254311 0.005203
v -0.198077 0.108393 0.057894
v -0.083410 0.033583 0.069386
v -0.198077 0.108393 0.057894
v -0.111797 0.034444 0.007592
v 0.051213 -0.020140 0.026416
v -0.035961 0.006160 0.013796
v 0.026730 -0.026157 -0.059205
v 0.229787 0.285959 0.149445
v 0.146965 0.255910 0.141523
v 0.184369 0.299876 0.107707
v -0.015110 0.796131 0.072166
v -0.022660 0.838048 -0.011765
v -0.090320 0.796760 -0.039930
v -0.035961 0.006160 0.013796
v -0.083410 0.033583 0.069386
v -0.111797 0.034444 0.007592
v 0.051213 -0.020140 0.026416
v 0.026730 -0.026157 -0.059205
v 0.127219 -0.008983 -0.041109
v -0.090320 0.796760 -0.039930
v -0.022660 0.838048 -0.011765
v 0.000550 0.848447 -0.103605
v -0.309173 0.374878 -0.081121
v -0.284825 0.528533 -0.020371
v -0.266183 0.535605 -0.139532
v -0.022660 0.838048 -0.011765
v 0.068903 0.842398 0.060008
v 0.100793 0.867031 -0.009946
v -0.297209 0.278997 -0.053862
v -0.235467 0.334742 -0.212710
v -0.245011 0.207483 -0.122495
v -0.090320 0.796760 -0.039930
v -0.034365 0.804592 -0.135867
v -0.180103 0.658061 -0.156545
v 0.026730 -0.026157 -0.059205
v -0.065389 0.033127 -0.114653
v 0.059123 0.007001 -0.131597
v -0.309173 0.374878 -0.081121
v -0.266183 0.535605 -0.139532
v -0.235467 0.334742 -0.212710
v -0.065389 0.033127 -0.114653
v -0.148342 0.083054 -0.121813
v -0.063485 0.103479 -0.215144
v -0.065389 0.033127 -0.114653
v -0.063485 0.103479 -0.215144
v 0.059123 0.007001 -0.131597
v -0.266183 0.535605 -0.139532
v -0.232155 0.555757 -0.176446
v -0.235467 0.334742 -0.212710
v -0.063485 0.103479 -0.215144
v -0.009209 0.238544 -0.281762
v 0.058302 0.157124 -0.244382
v 0.059123 0.007001 -0.131597
v -0.063485 0.103479 -0.215144
v 0.058302 0.157124 -0.244382
v -0.232155 0.555757 -0.176446
v -0.086531 0.652587 -0.233770
v -0.192631 0.381044 -0.266322
v -0.129971 0.197423 -0.222026
v -0.157630 0.248492 -0.166026
v -0.091022 0.239869 -0.197243
v 0.248884 0.140558 0.064316
v 0.212751 0.272980 0.053961
v 0.184766 0.162595 0.071948
v -0.129971 0.197423 -0.222026
v -0.099687 0.280199 -0.266110
v -0.063485 0.103479 -0.215144
v -0.086531 0.652587 -0.233770
v -0.060185 0.594001 -0.262050
v -0.075704 0.500481 -0.281833
v 0.127219 -0.008983 -0.041109
v 0.059123 0.007001 -0.131597
v 0.143612 0.053695 -0.134731
v -0.063485 0.103479 -0.215144
v -0.099687 0.280199 -0.266110
v -0.009209 0.238544 -0.281762
v -0.034365 0.804592 -0.135867
v 0.106171 0.826062 -0.147504
v 0.088379 0.769464 -0.197478
v -0.034365 0.804592 -0.135867
v 0.050340 0.734735 -0.234051
v -0.086531 0.652587 -0.233770
v 0.059123 0.007001 -0.131597
v 0.140233 0.105307 -0.180600
v 0.143612 0.053695 -0.134731
v -0.192631 0.381044 -0.266322
v -0.075704 0.500481 -0.281833
v -0.016605 0.418425 -0.307688
v 0.058302 0.157124 -0.244382
v -0.009209 0.238544 -0.281762
v 0.074990 0.293935 -0.291237
v -0.086531 0.652587 -0.233770
v 0.050340 0.734735 -0.234051
v 0.030737 0.648051 -0.257918
v -0.086531 0.652587 -0.233770
v 0.030737 0.648051 -0.257918
v -0.060185 0.594001 -0.262050
v -0.081172 0.553433 -0.210534
v 0.028076 0.616636 -0.195898
v -0.056540 0.461031 -0.239740
v 0.108618 0.456965 0.145094
v 0.106806 0.585959 0.091551
v 0.042980 0.597213 0.138626
v 0.186465 0.239029 0.113295
v 0.184369 0.299876 0.107707
v 0.146965 0.255910 0.141523
v 0.186465 0.239029 0.113295
v 0.146965 0.255910 0.141523
v 0.184766 0.162595 0.071948
v 0.108618 0.456965 0.145094
v 0.010800 0.523657 0.176303
v 0.058276 0.459025 0.179819
v -0.071230 0.487232 0.208427
v -0.123870 0.447647 0.205925
v -0.116795 0.328416 0.207607
v -0.180801 0.534192 0.134119
v -0.178101 0.569948 0.081466
v -0.246020 0.472002 0.086141
v -0.246359 0.391453 0.118084
v -0.180801 0.534192 0.134119
v -0.246020 0.472002 0.086141
v -0.262620 0.375091 0.037863
v -0.228255 0.510105 -0.001927
v -0.251767 0.455184 -0.059451
v -0.204454 0.334746 -0.176048
v -0.182001 0.384729 -0.205497
v -0.157630 0.248492 -0.166026
v -0.157630 0.248492 -0.166026
v -0.101764 0.321210 -0.227500
v -0.091022 0.239869 -0.197243
v 0.191849 0.741945 -0.153015
v 0.216119 0.757867 -0.111494
v 0.111893 0.637797 -0.145618
v -0.082576 0.501375 0.264031
v -0.123870 0.447647 0.205925
v -0.071230 0.487232 0.208427
v -0.305239 0.434098 0.107799
v -0.293479 0.384658 0.165737
v -0.246359 0.391453 0.118084
v -0.260526 0.468646 0.177343
v -0.201617 0.615574 0.135151
v -0.180801 0.534192 0.134119
v -0.309173 0.374878 -0.081121
v -0.297209 0.278997 -0.053862
v -0.237349 0.310342 -0.069017
v 0.157624 0.664913 -0.172931
v 0.191849 0.741945 -0.153015
v 0.111893 0.637797 -0.145618
v -0.147852 0.393733 0.263182
v -0.116795 0.328416 0.207607
v -0.123870 0.447647 0.205925
v -0.001007 0.406724 0.261101
v -0.082576 0.501375 0.264031
v -0.071230 0.487232 0.208427
v -0.218556 0.268296 -0.202025
v -0.204454 0.334746 -0.176048
v -0.157630 0.248492 -0.166026
v -0.129971 0.197423 -0.222026
v -0.218556 0.268296 -0.202025
v -0.157630 0.248492 -0.166026
v -0.083858 0.111900 0.045251
v -0.041038 0.118144 0.089142
v -0.037220 0.047675 0.109895
v -0.083410 0.033583 0.069386
v 0.010800 0.523657 0.176303
v 0.032304 0.563378 0.218836
v 0.080829 0.486724 0.217334
v 0.058276 0.459025 0.179819
v 0.167438 0.585799 0.053281
v 0.223186 0.450111 0.059714
v 0.221897 0.475595 -0.010011
v 0.183276 0.589219 -0.016152
v -0.025452 0.276630 0.195732
v -0.116795 0.328416 0.207607
v -0.115800 0.298162 0.250140
v -0.033296 0.266760 0.252562
v 0.042980 0.597213 0.138626
v 0.066210 0.633135 0.192581
v 0.032304 0.563378 0.218836
v 0.010800 0.523657 0.176303
v -0.262620 0.375091 0.037863
v -0.224514 0.274400 0.004435
v -0.285066 0.254311 0.005203
v -0.321820 0.375045 0.049958
v -0.262620 0.375091 0.037863
v -0.321820 0.375045 0.049958
v -0.292540 0.503558 0.023342
v -0.228255 0.510105 -0.001927
v 0.028076 0.616636 -0.195898
v 0.030737 0.648051 -0.257918
v -0.035930 0.505367 -0.284560
v -0.056540 0.461031 -0.239740
v 0.108618 0.456965 0.145094
v 0.058276 0.459025 0.179819
v 0.080829 0.486724 0.217334
v 0.134289 0.501920 0.170175
v 0.204248 0.192508 0.170427
v 0.229787 0.285959 0.149445
v 0.161406 0.357941 0.217641
v 0.104267 0.353000 0.253712
v 0.158284 0.149428 -0.106305
v 0.122885 0.181550 -0.154911
v 0.183305 0.127612 -0.169893
v 0.201845 0.084875 -0.115082
v -0.013480 0.675194 0.219639
v -0.054978 0.572554 0.242349
v 0.004464 0.594929 0.238071
v 0.065272 0.706511 0.197206
v 0.090101 0.163306 0.216774
v 0.091326 0.052561 0.131723
v 0.191978 0.089708 0.114831
v 0.210853 0.130862 0.136934
v 0.042980 0.597213 0.138626
v 0.106806 0.585959 0.091551
v 0.097241 0.637626 0.147896
v 0.066210 0.633135 0.192581
v 0.013514 0.079421 0.062746
v 0.025560 0.012907 0.075450
v -0.037220 0.047675 0.109895
v -0.041038 0.118144 0.089142
v -0.237349 0.310342 -0.069017
v -0.297209 0.278997 -0.053862
v -0.285066 0.254311 0.005203
v -0.224514 0.274400 0.004435
v -0.178101 0.569948 0.081466
v -0.241268 0.581492 0.103296
v -0.305239 0.434098 0.107799
v -0.246020 0.472002 0.086141
v 0.106806 0.585959 0.091551
v 0.108618 0.456965 0.145094
v 0.134289 0.501920 0.170175
v 0.132871 0.596694 0.124954
v -0.290542 0.292239 0.135312
v -0.198077 0.108393 0.057894
v -0.111305 0.095485 0.135153
v -0.176854 0.184773 0.160049
v -0.136905 0.738608 -0.027092
v -0.202982 0.682126 -0.010891
v -0.201617 0.615574 0.135151
v -0.087511 0.723914 0.095660
v -0.202982 0.682126 -0.010891
v -0.284825 0.528533 -0.020371
v -0.292540 0.503558 0.023342
v -0.201617 0.615574 0.135151
v -0.297209 0.278997 -0.053862
v -0.245011 0.207483 -0.122495
v -0.198077 0.108393 0.057894
v -0.285066 0.254311 0.005203
v -0.266183 0.535605 -0.139532
v -0.284825 0.528533 -0.020371
v -0.202982 0.682126 -0.010891
v -0.180103 0.658061 -0.156545
v -0.129971 0.197423 -0.222026
v -0.063485 0.103479 -0.215144
v -0.148342 0.083054 -0.121813
v -0.245011 0.207483 -0.122495
v 0.112044 0.111218 -0.105042
v 0.143612 0.053695 -0.134731
v 0.140233 0.105307 -0.180600
v 0.122885 0.181550 -0.154911
v -0.081172 0.553433 -0.210534
v -0.056540 0.461031 -0.239740
v -0.075704 0.500481 -0.281833
v -0.060185 0.594001 -0.262050
v 0.184766 0.162595 0.071948
v 0.146965 0.255910 0.141523
v 0.204248 0.192508 0.170427
v 0.210853 0.130862 0.136934
v 0.028076 0.616636 -0.195898
v -0.081172 0.553433 -0.210534
v -0.060185 0.594001 -0.262050
v 0.030737 0.648051 -0.257918
v 0.013514 0.079421 0.062746
v -0.033541 0.077587 0.010059
v -0.035961 0.006160 0.013796
v 0.025560 0.012907 0.075450
v -0.182001 0.384729 -0.205497
v -0.204454 0.334746 -0.176048
v -0.235467 0.334742 -0.212710
v -0.192631 0.381044 -0.266322
v 0.212751 0.272980 0.053961
v 0.280808 0.242691 0.083736
v 0.229787 0.285959 0.149445
v 0.184369 0.299876 0.107707
v -0.025452 0.276630 0.195732
v -0.033296 0.266760 0.252562
v 0.017586 0.304515 0.258041
v 0.018984 0.326728 0.203889
vn 0.0964 -0.7372 0.6688
vn -0.0953 0.2361 -0.9671
vn 0.1124 0.9898 -0.0880
vn 0.4923 -0.7607 -0.4231
vn -0.0171 -0.1433 -0.9895
vn 0.4564 -0.3376 -0.8232
vn -0.4164 -0.5665 0.7111
vn 0.4046 -0.3826 -0.8306
vn 0.3938 -0.0124 -0.9191
vn 0.5333 -0.6734 -0.5119
vn 0.2655 0.0682 -0.9617
vn 0.5942 -0.5244 -0.6099
vn 0.3548 0.2191 -0.9089
vn 0.2938 0.8391 -0.4579
vn 0.7659 -0.6420 0.0341
vn 0.7078 0.4140 -0.5724
vn 0.7731 -0.0148 -0.6341
vn 0.6444 -0.0620 -0.7622
vn 0.8025 0.4231 -0.4206
vn -0.0624 -0.3314 0.9414
vn 0.8533 -0.4310 -0.2934
vn 0.8817 0.3811 -0.2783
vn 0.7685 0.5018 -0.3970
vn 0.9290 0.2347 -0.2861
vn 0.5833 0.0227 0.8119
vn 0.7146 -0.6415 -0.2791
vn 0.9222 0.2526 -0.2929
vn 0.9330 -0.1579 -0.3233
vn 0.4338 0.9003 -0.0356
vn 0.8922 0.0956 -0.4414
vn 0.9321 0.3471 -0.1036
vn 0.8862 -0.4599 -0.0560
vn 0.9081 -0.3516 0.2273
vn 0.9469 0.3211 -0.0141
vn 0.8821 -0.4562 0.1175
vn 0.9345 0.3396 0.1068
vn 0.9309 0.3525 0.0958
vn 0.8251 -0.3432 0.4489
vn 0.7374 -0.6074 0.2956
vn 0.5721 0.7860 0.2344
vn 0.8891 0.4552 0.0480
vn 0.8900 0.3139 0.3306
vn 0.8704 0.1828 0.4572
vn 0.8602 -0.0972 0.5006
vn 0.8935 0.2042 0.3999
vn 0.7938 0.4159 0.4438
vn 0.5730 0.4361 0.6939
vn 0.8150 0.0921 0.5722
vn 0.9392 0.2898 0.1842
vn -0.9922 -0.1082 0.0615
vn 0.4581 -0.2256 0.8598
vn 0.4367 -0.1196 0.8916
vn -0.6088 -0.5599 0.5620
vn 0.6849 0.4299 0.5883
vn 0.7755 -0.5354 0.3346
vn 0.3841 0.5738 0.7233
vn 0.7234 -0.1472 0.6746
vn 0.2140 0.2912 0.9324
vn 0.7179 -0.5881 0.3725
vn 0.4887 0.3077 0.8164
vn 0.3224 0.3830 0.8657
vn 0.4341 -0.1577 0.8870
vn 0.2642 0.1985 0.9438
vn 0.0709 0.9303 0.3599
vn 0.1602 -0.2002 0.9666
vn 0.0295 0.5320 0.8462
vn 0.3730 -0.7874 0.4908
vn 0.8485 -0.5135 -0.1282
vn 0.0764 -0.2433 0.9669
vn -0.3501 0.3945 0.8496
vn -0.1717 -0.3811 0.9085
vn -0.2972 0.7080 0.6406
vn -0.0531 -0.7050 0.7072
vn -0.3928 0.6561 0.6444
vn -0.2003 -0.6752 0.7099
vn -0.4233 -0.1009 0.9004
vn -0.2315 -0.4152 0.8798
vn 0.0948 -0.6090 0.7875
vn -0.6715 0.4404 0.5960
vn -0.6586 0.1567 0.7360
vn -0.6458 0.6262 0.4368
vn -0.5512 0.7287 0.4064
vn -0.7809 0.4912 0.3859
vn 0.2373 -0.7435 0.6252
vn -0.4730 -0.6633 0.5799
vn -0.5170 -0.7218 0.4601
vn -0.2865 -0.7553 0.5894
vn -0.4163 -0.0426 0.9082
vn -0.1179 0.7478 -0.6533
vn -0.9502 -0.3077 0.0497
vn 0.3372 -0.9132 0.2287
vn -0.6905 0.6312 0.3534
vn -0.3551 -0.9288 0.1062
vn -0.6762 -0.7319 -0.0840
vn -0.4694 -0.8620 -0.1913
vn -0.3944 0.9189 0.0044
vn -0.7826 -0.6087 -0.1308
vn -0.7875 0.6057 -0.1141
vn -0.6644 0.7135 -0.2223
vn -0.5100 -0.8574 -0.0693
vn -0.2273 0.9565 0.1831
vn -0.6232 0.7203 -0.3047
vn -0.7612 0.4735 -0.4432
vn -0.8774 -0.2293 -0.4215
vn -0.5748 -0.5465 -0.6091
vn 0.2159 -0.9207 -0.3251
vn -0.8207 -0.2882 -0.4934
vn -0.4961 0.5841 -0.6425
vn -0.5616 0.4240 -0.7105
vn -0.8191 0.1048 -0.5640
vn 0.0415 0.4761 -0.8784
vn 0.2366 -0.5828 -0.7774
vn -0.3779 0.2544 -0.8902
vn -0.1620 0.6652 -0.7289
vn -0.0963 0.7699 -0.6309
vn -0.1895 -0.1766 -0.9659
vn -0.2344 -0.1481 -0.9608
vn -0.0581 0.8258 -0.5609
vn 0.4458 -0.5625 -0.6964
vn 0.7689 -0.3564 -0.5308
vn 0.8963 0.0711 0.4377
vn 0.9333 -0.1866 0.3067
vn 0.4435 0.2473 0.8615
vn 0.0272 -0.0130 0.9995
vn 0.0247 -0.1819 0.9830
vn -0.3542 -0.8135 0.4613
vn -0.3522 -0.8701 0.3448
vn -0.9362 -0.3515 -0.0084
vn -0.9800 -0.0857 -0.1798
vn -0.4790 -0.3223 -0.8165
vn -0.0891 0.0749 -0.9932
vn 0.7460 -0.5348 -0.3967
vn 0.2029 -0.3877 0.8992
vn -0.0409 0.7197 0.6931
vn -0.2418 -0.0879 0.9663
vn -0.6613 0.3766 -0.6487
vn -0.9797 -0.1753 -0.0972
vn 0.4281 -0.6222 -0.6555
vn -0.8066 -0.4637 0.3666
vn -0.1150 0.7945 0.5963
vn -0.4502 0.7721 0.4486
vn -0.6757 0.7275 -0.1189
vn 0.7604 0.0901 -0.6432
vn -0.1126 -0.8541 -0.5078
vn 0.0826 0.8814 -0.4651
vn 0.6068 -0.7682 -0.2042
vn 0.3202 0.4980 -0.8059
vn 0.1193 0.2384 -0.9638
vn 0.1861 -0.2634 -0.9466
vn 0.4264 -0.3656 -0.8273
vn 0.4509 0.4884 -0.7471
vn 0.4382 -0.2906 -0.8506
vn 0.3096 -0.0378 -0.9501
vn -0.6891 0.3575 -0.6304
vn 0.2209 0.2963 -0.9292
vn 0.7071 -0.1347 -0.6942
vn 0.6889 -0.1814 -0.7018
vn 0.3502 0.5557 -0.7540
vn 0.4504 0.4243 -0.7856
vn 0.6815 -0.2632 -0.6829
vn 0.6156 -0.0533 -0.7863
vn 0.6118 -0.6012 -0.5141
vn 0.5503 0.2682 -0.7907
vn 0.6217 0.2669 -0.7364
vn 0.7635 -0.2082 -0.6113
vn 0.6333 -0.1457 -0.7600
vn 0.8263 0.1811 -0.5333
vn 0.8668 -0.1910 -0.4606
vn 0.4979 0.8505 -0.1695
vn 0.7906 0.1844 0.5839
vn -0.9476 -0.2397 -0.2114
vn 0.5856 -0.8106 -0.0097
vn 0.8603 0.3819 -0.3377
vn 0.9141 0.1356 -0.3821
vn 0.7681 -0.5044 -0.3945
vn 0.8578 0.5122 0.0422
vn 0.9429 -0.2880 -0.1671
vn 0.4652 0.8842 -0.0422
vn 0.8817 0.3464 -0.3203
vn 0.9477 0.2566 -0.1900
vn 0.6484 -0.6942 0.3125
vn 0.8413 -0.5034 0.1968
vn 0.6109 0.7716 0.1774
vn 0.8028 0.3526 0.4807
vn 0.7461 -0.6345 0.2018
vn 0.6015 0.2443 0.7606
vn 0.5021 0.7713 0.3911
vn 0.7498 0.0915 0.6553
vn 0.6724 0.0853 0.7353
vn -0.5878 -0.7948 0.1509
vn 0.5885 -0.2719 0.7614
vn -0.6790 0.6088 -0.4103
vn -0.2960 0.5639 -0.7710
vn 0.5845 0.0212 0.8111
vn 0.3183 0.1833 0.9301
vn 0.4126 -0.2037 0.8878
vn 0.4306 -0.3948 0.8116
vn 0.6814 -0.7016 0.2084
vn 0.2171 0.8163 0.5354
vn 0.0604 -0.0189 0.9980
vn -0.0475 0.3079 0.9502
vn 0.1839 0.7947 0.5784
vn 0.3418 0.8913 0.2980
vn -0.0194 -0.3474 0.9375
vn -0.1890 0.7001 0.6886
vn -0.1959 0.1111 0.9743
vn -0.3271 -0.4788 0.8147
vn 0.0211 -0.6088 0.7930
vn -0.2695 -0.2184 0.9379
vn -0.2381 -0.3117 0.9199
vn -0.2575 -0.4893 0.8332
vn -0.1660 -0.6802 0.7140
vn -0.3360 0.3310 0.8818
vn -0.3153 0.3620 0.8772
vn -0.1944 0.8119 0.5505
vn -0.1171 -0.5997 0.7916
vn -0.5170 0.7359 0.4373
vn -0.5740 0.3640 0.7335
vn 0.1671 -0.8873 0.4299
vn -0.6101 -0.0259 0.7919
vn -0.5067 0.7550 0.4161
vn -0.4378 -0.6984 0.5661
vn -0.7989 -0.2108 0.5633
vn 0.1038 0.3663 0.9247
vn -0.9712 0.0434 0.2341
vn -0.9631 -0.1113 0.2450
vn -0.3835 0.8120 0.4400
vn -0.6860 -0.6510 0.3250
vn -0.8984 0.3957 0.1904
vn -0.9721 0.2305 0.0434
vn -0.3173 -0.8550 0.4102
vn 0.2999 -0.9239 0.2377
vn -0.8703 -0.4814 0.1037
vn -0.5472 -0.8018 0.2402
vn -0.3057 -0.9397 0.1535
vn 0.3235 -0.7343 -0.5968
vn -0.5930 0.6977 0.4018
vn -0.3563 -0.9221 0.1508
vn 0.1645 -0.9861 0.0223
vn -0.5109 0.8590 -0.0319
vn -0.9681 0.2084 -0.1391
vn -0.2256 0.9466 0.2305
vn -0.8757 -0.2338 -0.4224
vn -0.6482 0.6901 -0.3217
vn -0.2424 -0.8364 -0.4916
vn -0.8648 0.0498 -0.4996
vn -0.4033 -0.7460 -0.5299
vn -0.2424 -0.7926 -0.5595
vn -0.7611 0.1161 -0.6382
vn -0.0250 -0.4341 -0.9005
vn 0.0723 -0.5988 -0.7976
vn -0.5144 0.2974 -0.8043
vn -0.2519 0.6499 -0.7171
vn 0.1578 0.1197 0.9802
vn -0.3718 -0.3268 -0.8689
vn -0.3901 0.2521 -0.8856
vn 0.4181 -0.7870 -0.4537
vn -0.3030 -0.3209 -0.8974
vn -0.1632 0.6813 -0.7135
vn -0.3552 0.5893 -0.7257
vn 0.3153 -0.6188 -0.7195
vn -0.2514 0.1215 -0.9602
vn 0.1147 -0.3344 -0.9354
vn -0.1814 0.2990 -0.9369
vn -0.1744 0.3633 -0.9152
vn -0.0405 0.2913 -0.9558
vn 0.5988 0.3142 0.7367
vn 0.6050 0.0935 0.7907
vn 0.3867 -0.4454 0.8075
vn 0.5254 0.4260 0.7365
vn -0.0556 0.0108 0.9984
vn -0.7674 0.5480 0.3328
vn -0.7201 0.2584 0.6439
vn -0.9524 0.2787 0.1232
vn -0.4076 -0.3206 -0.8550
vn -0.4335 -0.3639 -0.8244
vn 0.7669 -0.6041 -0.2166
vn 0.5620 -0.7669 0.3097
vn 0.4336 0.7270 0.5324
vn -0.4135 -0.0943 -0.9056
vn 0.0935 0.2830 0.9545
vn 0.6388 -0.4459 0.6269
vn 0.8995 0.0595 0.4328
vn -0.7573 -0.6530 0.0116
vn 0.5460 0.2020 -0.8130
vn 0.5005 0.7484 -0.4353
vn 0.6981 -0.1884 -0.6908
vn 0.6119 0.4061 -0.6788
vn 0.6119 0.4060 -0.6788
vn 0.9187 0.3563 0.1701
vn 0.4180 0.8320 0.3648
vn 0.4179 0.8320 0.3647
vn 0.8942 -0.4426 -0.0677
vn 0.8942 -0.4425 -0.0677
vn 0.8942 -0.4425 -0.0676
vn -0.1495 0.2839 -0.9471
vn -0.2769 -0.1714 -0.9455
vn -0.8967 0.4291 0.1089
vn -0.8967 0.4290 0.1089
vn -0.4756 0.7337 -0.4852
vn -0.4756 0.7338 -0.4852
vn 0.6173 -0.0639 0.7842
vn 0.6172 -0.0640 0.7842
vn -0.7569 -0.6492 -0.0751
vn -0.7570 -0.6491 -0.0751
vn 0.0925 0.2424 0.9657
vn 0.0924 0.2424 0.9658
vn 0.0925 0.2424 0.9658
vn 0.3395 -0.5682 0.7495
vn 0.3395 -0.5682 0.7496
vn 0.3396 -0.5682 0.7496
vn 0.4513 -0.7252 0.5200
vn -0.5669 -0.2566 -0.7828
vn -0.5668 -0.2568 -0.7828
vn -0.5666 -0.2571 -0.7828
vn -0.5668 -0.2569 -0.7828
vn -0.3019 0.8441 0.4431
vn -0.3020 0.8441 0.4431
vn 0.3609 -0.1596 0.9188
vn 0.3609 -0.1596 0.9189
vn 0.3609 -0.1597 0.9188
vn -0.8247 0.2183 0.5217
vn -0.8247 0.2184 0.5217
vn -0.6175 -0.5630 0.5493
vn -0.6175 -0.5630 0.5492
vn -0.5779 0.7446 0.3342
vn -0.5778 0.7446 0.3342
vn -0.5779 0.7446 0.3341
vn -0.8605 0.4695 0.1977
vn -0.8425 -0.5343 -0.0683
vn -0.8425 -0.5343 -0.0684
vn -0.8426 -0.5343 -0.0682
vn -0.8446 0.5093 -0.1651
vn -0.5998 -0.4707 -0.6471
vn -0.5998 -0.4706 -0.6471
vn -0.5999 -0.4706 -0.6470
vn 0.9228 0.2015 0.3285
vn 0.9228 0.2014 0.3285
vn 0.9981 0.0357 0.0500
vn 0.9981 0.0358 0.0500
vn 0.8445 0.4425 -0.3015
vn 0.8445 0.4426 -0.3015
vn 0.8446 0.4425 -0.3015
vn 0.4923 -0.7779 -0.3906
vn 0.4923 -0.7778 -0.3907
vn -0.7260 0.0312 0.6870
vn 0.6775 -0.6867 -0.2634
vn 0.6775 -0.6867 -0.2635
vn -0.4622 -0.8640 0.1999
vn -0.4625 -0.8638 0.1999
vn -0.6816 0.7162 0.1503
vn -0.6815 0.7162 0.1502
vn -0.6816 0.7161 0.1503
vt 0.202848 0.214466
vt 0.203440 0.214466
vt 0.203980 0.214466
vt 0.165052 0.029202
vt 0.164201 0.029521
vt 0.164478 0.031217
vt 0.155662 0.018228
vt 0.163079 0.019674
vt 0.167051 0.019726
vt 0.164879 0.041273
vt 0.162200 0.042068
vt 0.168993 0.042760
vt 0.165672 0.034316
vt 0.164243 0.034271
vt 0.163449 0.036725
vt 0.165653 0.036906
vt 0.228343 0.215322
vt 0.227697 0.215719
vt 0.228554 0.215322
vt 0.164793 0.039711
vt 0.163871 0.038962
vt 0.164311 0.026220
vt 0.162777 0.029099
vt 0.163341 0.040704
vt 0.163151 0.034252
vt 0.160741 0.040320
vt 0.164367 0.021744
vt 0.162044 0.021842
vt 0.170101 0.044198
vt 0.158241 0.043091
vt 0.161113 0.024122
vt 0.162243 0.024540
vt 0.161274 0.033851
vt 0.160819 0.035443
vt 0.160688 0.038492
vt 0.161631 0.029485
vt 0.160030 0.031226
vt 0.220522 0.226462
vt 0.220765 0.226892
vt 0.221440 0.227319
vt 0.161070 0.026465
vt 0.160250 0.027857
vt 0.158712 0.034621
vt 0.158856 0.022075
vt 0.201991 0.226597
vt 0.201991 0.226705
vt 0.202411 0.224889
vt 0.159273 0.041371
vt 0.158672 0.038407
vt 0.155574 0.019460
vt 0.159122 0.029709
vt 0.158222 0.032536
vt 0.157643 0.024692
vt 0.159022 0.025131
vt 0.158206 0.029904
vt 0.155796 0.039549
vt 0.157346 0.037851
vt 0.157172 0.033177
vt 0.156489 0.037417
vt 0.156286 0.026567
vt 0.155763 0.028425
vt 0.156491 0.023642
vt 0.155766 0.034782
vt 0.157240 0.029965
vt 0.155633 0.030674
vt 0.154032 0.022314
vt 0.153897 0.024391
vt 0.154819 0.036391
vt 0.206275 0.219245
vt 0.206275 0.218796
vt 0.206546 0.217893
vt 0.223413 0.219906
vt 0.224076 0.220464
vt 0.223413 0.219391
vt 0.154652 0.027544
vt 0.223836 0.217987
vt 0.154424 0.031291
vt 0.154098 0.033962
vt 0.153837 0.039452
vt 0.153129 0.040788
vt 0.151849 0.023330
vt 0.152690 0.025273
vt 0.152718 0.027840
vt 0.152316 0.031648
vt 0.153034 0.033547
vt 0.148297 0.043033
vt 0.148672 0.044276
vt 0.153927 0.029987
vt 0.151583 0.029545
vt 0.150398 0.019905
vt 0.151364 0.032755
vt 0.151455 0.037027
vt 0.150846 0.025627
vt 0.149890 0.040022
vt 0.207132 0.217426
vt 0.208223 0.217046
vt 0.150334 0.033048
vt 0.151114 0.027606
vt 0.149357 0.029332
vt 0.149634 0.031745
vt 0.148145 0.032466
vt 0.147433 0.021909
vt 0.147458 0.033339
vt 0.149011 0.023717
vt 0.148665 0.026361
vt 0.150287 0.036538
vt 0.146905 0.039536
vt 0.149905 0.030393
vt 0.147935 0.031237
vt 0.148789 0.036377
vt 0.147276 0.035866
vt 0.147061 0.037739
vt 0.147279 0.026917
vt 0.147921 0.028280
vt 0.147251 0.028970
vt 0.144742 0.022820
vt 0.147299 0.024525
vt 0.224663 0.220464
vt 0.145790 0.041121
vt 0.145496 0.034443
vt 0.145715 0.037231
vt 0.213130 0.224917
vt 0.213130 0.224935
vt 0.212369 0.226898
vt 0.146207 0.026966
vt 0.145350 0.027796
vt 0.146681 0.030533
vt 0.145483 0.029268
vt 0.144786 0.030482
vt 0.144593 0.042734
vt 0.144491 0.024395
vt 0.145350 0.039097
vt 0.144692 0.036872
vt 0.144493 0.040057
vt 0.171988 0.034442
vt 0.169951 0.035561
vt 0.171913 0.037075
vt 0.170640 0.040374
vt 0.171809 0.020795
vt 0.168274 0.021143
vt 0.170110 0.032572
vt 0.171708 0.024432
vt 0.171101 0.022851
vt 0.169207 0.025604
vt 0.171776 0.025499
vt 0.169862 0.037546
vt 0.164613 0.018224
vt 0.168195 0.022875
vt 0.168692 0.027256
vt 0.169953 0.027434
vt 0.171022 0.029151
vt 0.168565 0.030321
vt 0.171033 0.030430
vt 0.168486 0.031563
vt 0.168023 0.033163
vt 0.168183 0.040210
vt 0.166704 0.025955
vt 0.167184 0.030444
vt 0.221372 0.228916
vt 0.220993 0.228818
vt 0.219985 0.228201
vt 0.164811 0.023340
vt 0.165123 0.024527
vt 0.166746 0.032382
vt 0.103577 0.232752
vt 0.102796 0.233532
vt 0.103806 0.234678
vt 0.098967 0.218067
vt 0.099774 0.220116
vt 0.100636 0.219306
vt 0.095892 0.230833
vt 0.094685 0.229751
vt 0.094229 0.231321
vt 0.094498 0.232999
vt 0.093748 0.222026
vt 0.093372 0.223468
vt 0.094341 0.223752
vt 0.090967 0.223072
vt 0.089109 0.224669
vt 0.090933 0.225899
vt 0.089834 0.226323
vt 0.086517 0.231049
vt 0.085223 0.230749
vt 0.086289 0.232783
vt 0.084803 0.232565
vt 0.111366 0.222454
vt 0.110509 0.223457
vt 0.111366 0.223752
vt 0.110509 0.221579
vt 0.107887 0.225874
vt 0.107035 0.223752
vt 0.106225 0.225250
vt 0.219985 0.227672
vt 0.217753 0.211895
vt 0.216138 0.212201
vt 0.217824 0.213446
vt 0.227697 0.216651
vt 0.221699 0.216692
vt 0.221339 0.216658
vt 0.220842 0.216985
vt 0.227697 0.217597
vt 0.204561 0.215780
vt 0.204561 0.214702
vt 0.203698 0.216179
vt 0.208846 0.219289
vt 0.208121 0.220040
vt 0.207989 0.220214
vt 0.215701 0.212638
vt 0.208164 0.217220
vt 0.217414 0.213719
vt 0.216930 0.214257
vt 0.216558 0.214290
vt 0.225126 0.217893
vt 0.225126 0.218241
vt 0.225126 0.219063
vt 0.201134 0.215322
vt 0.201309 0.215322
vt 0.201991 0.215322
vt 0.163571 0.025629
vt 0.211459 0.223891
vt 0.210559 0.225565
vt 0.210559 0.225014
vt 0.203704 0.216179
vt 0.202346 0.224748
vt 0.224222 0.217893
vt 0.211416 0.215322
vt 0.210559 0.215322
vt 0.210798 0.216179
vt 0.153919 0.028679
vt 0.153925 0.038072
vt 0.211187 0.227319
vt 0.211686 0.227140
vt 0.212273 0.215885
vt 0.212013 0.215435
vt 0.202848 0.215950
vt 0.202848 0.215322
vt 0.146207 0.028450
vt 0.144675 0.020780
vt 0.211873 0.223891
vt 0.171913 0.041533
vt 0.171702 0.027798
vt 0.171696 0.018397
vt 0.168053 0.036074
vt 0.225126 0.220049
vt 0.165082 0.027384
vt 0.104511 0.220726
vt 0.103738 0.219646
vt 0.104151 0.222518
vt 0.094825 0.221294
vt 0.093372 0.230873
vt 0.093727 0.224609
vt 0.089944 0.223285
vt 0.087374 0.220561
vt 0.086253 0.220325
vt 0.085802 0.221182
vt 0.086511 0.222039
vt 0.111366 0.221182
vt 0.107939 0.224100
vt 0.106888 0.226323
vt 0.218271 0.213212
vt 0.227697 0.217893
vt 0.203704 0.225189
vt 0.203704 0.225237
vt 0.210559 0.217608
vt 0.210559 0.217479
vt 0.211064 0.218750
vt 0.210914 0.218750
vt 0.207021 0.220464
vt 0.206974 0.220464
vt 0.210949 0.216179
vt 0.201991 0.216595
vt 0.201398 0.217893
vt 0.201391 0.217893
vt 0.201991 0.216768
vt 0.220925 0.213786
vt 0.220951 0.213720
vt 0.211529 0.217893
vt 0.211928 0.218095
vt 0.203476 0.226924
vt 0.203406 0.227015
vt 0.228554 0.217893
vt 0.144647 0.025499
vt 0.144493 0.027816
vt 0.171913 0.030505
vt 0.221699 0.214867
vt 0.221699 0.214907
s 0
usemtl Asteroid
f 1/1/1 2/2/1 3/3/1
f 4/4/2 5/5/2 6/6/2
f 7/7/3 8/8/3 9/9/3
f 10/10/4 11/11/4 12/12/4
f 13/13/5 14/6/5 15/14/5
f 16/14/6 17/15/6 18/16/6
f 19/17/7 20/18/7 21/19/7
f 22/20/8 23/16/8 24/21/8
f 25/22/9 26/23/9 27/5/9
f 28/10/10 29/24/10 30/11/10
f 31/6/11 32/25/11 33/14/11
f 34/21/12 35/26/12 36/24/12
f 37/6/13 38/23/13 39/25/13
f 40/27/14 41/8/14 42/28/14
f 43/29/15 44/11/15 45/30/15
f 46/28/16 47/31/16 48/32/16
f 49/25/17 50/33/17 51/34/17
f 52/15/18 53/34/18 54/35/18
f 55/36/19 56/37/19 57/33/19
f 58/38/20 59/39/20 60/40/20
f 61/41/21 62/42/21 63/36/21
f 64/33/22 65/37/22 66/43/22
f 67/28/23 68/44/23 69/31/23
f 70/33/24 71/43/24 72/34/24
f 73/45/25 74/46/25 75/47/25
f 76/26/26 77/48/26 78/11/26
f 79/34/27 80/43/27 81/49/27
f 82/35/28 83/49/28 84/26/28
f 85/8/29 86/7/29 87/50/29
f 88/51/30 89/52/30 90/37/30
f 91/44/31 92/53/31 93/54/31
f 94/55/32 95/54/32 96/53/32
f 97/48/33 98/49/33 99/56/33
f 100/51/34 101/55/34 102/52/34
f 103/49/35 104/57/35 105/56/35
f 106/52/36 107/58/36 108/43/36
f 109/43/37 110/58/37 111/57/37
f 112/57/38 113/59/38 114/56/38
f 115/55/39 116/60/39 117/61/39
f 118/44/40 119/50/40 120/62/40
f 121/44/41 122/62/41 123/53/41
f 124/58/42 125/63/42 126/57/42
f 127/57/43 128/63/43 129/59/43
f 130/53/44 131/62/44 132/60/44
f 133/64/45 134/61/45 135/65/45
f 136/58/46 137/65/46 138/63/46
f 139/62/47 140/66/47 141/67/47
f 142/63/48 143/68/48 144/59/48
f 145/69/49 146/70/49 147/71/49
f 148/72/50 149/73/50 150/74/50
s 1
f 151/60/51 152/67/51 153/75/51
s 0
f 154/60/52 155/75/52 156/61/52
f 157/72/53 158/74/53 159/76/53
f 160/63/54 161/77/54 162/78/54
f 163/79/55 164/80/55 165/56/55
f 166/67/56 167/66/56 168/81/56
f 169/75/57 170/82/57 171/83/57
f 172/77/58 173/84/58 174/85/58
f 175/30/59 176/86/59 177/87/59
f 178/77/60 179/85/60 180/78/60
f 181/67/61 182/81/61 183/82/61
f 184/88/62 185/83/62 186/89/62
f 187/88/63 188/89/63 189/84/63
f 190/50/64 191/7/64 192/90/64
f 193/85/65 194/91/65 195/92/65
f 196/82/66 197/81/66 198/93/66
f 199/80/67 200/94/67 201/86/67
f 202/71/68 203/95/68 204/96/68
f 205/91/69 206/97/69 207/92/69
f 208/89/70 209/98/70 210/99/70
f 211/100/71 212/101/71 213/97/71
f 214/90/72 215/102/72 216/81/72
f 217/97/73 218/101/73 219/103/73
f 220/93/74 221/104/74 222/105/74
f 223/106/75 224/107/75 225/94/75
f 226/108/76 227/99/76 228/109/76
f 229/110/77 230/103/77 231/111/77
f 232/110/78 233/112/78 234/107/78
f 235/105/79 236/113/79 237/114/79
f 238/99/80 239/114/80 240/115/80
f 241/104/81 242/102/81 243/116/81
f 244/105/82 245/117/82 246/113/82
f 247/118/83 248/73/83 249/72/83
f 250/107/84 251/119/84 252/86/84
f 253/101/85 254/109/85 255/103/85
f 256/111/86 257/120/86 258/121/86
f 259/111/87 260/121/87 261/112/87
f 262/122/88 263/123/88 264/124/88
f 265/125/89 266/113/89 267/126/89
f 268/127/90 269/128/90 270/129/90
f 271/119/91 272/130/91 273/86/91
f 274/117/92 275/116/92 276/131/92
f 277/132/93 278/133/93 279/134/93
f 280/135/94 281/136/94 282/137/94
f 283/137/95 284/136/95 285/138/95
f 286/139/96 287/9/96 288/140/96
f 289/135/97 290/141/97 291/136/97
f 292/142/98 293/143/98 294/144/98
f 295/142/99 296/144/99 297/145/99
f 298/136/100 299/146/100 300/138/100
f 301/139/101 302/147/101 303/9/101
f 304/140/102 305/148/102 306/143/102
f 307/144/103 308/149/103 309/150/103
f 310/151/104 311/152/104 312/153/104
f 313/141/105 314/154/105 315/155/105
f 316/138/106 317/156/106 318/12/106
f 319/152/107 320/154/107 321/141/107
f 322/148/108 323/157/108 324/144/108
f 325/144/109 326/157/109 327/149/109
s 1
f 328/149/110 329/158/110 330/152/110
s 0
f 331/159/111 332/160/111 333/161/111
f 334/156/112 335/16/112 336/20/112
f 337/157/113 338/4/113 339/158/113
f 340/140/114 341/27/114 342/148/114
f 343/162/115 344/163/115 345/148/115
f 346/158/116 347/6/116 348/164/116
f 349/164/117 350/6/117 351/13/117
f 352/9/118 353/27/118 354/140/118
f 355/165/119 356/166/119 357/167/119
f 358/168/120 359/169/120 360/170/120
f 361/171/121 362/172/121 363/173/121
f 364/171/122 365/173/122 366/174/122
f 367/175/123 368/176/123 369/177/123
f 370/178/124 371/179/124 372/180/124
f 373/180/125 374/179/125 375/181/125
f 376/182/126 377/183/126 378/184/126
f 379/183/127 380/185/127 381/184/127
f 382/186/128 383/187/128 384/188/128
f 385/186/129 386/189/129 387/187/129
f 388/190/130 389/191/130 390/192/130
f 391/161/131 392/160/131 393/193/131
f 394/194/132 395/195/132 396/196/132
f 397/197/133 398/18/133 399/17/133
f 400/198/134 401/199/134 402/200/134
f 403/197/135 404/201/135 405/18/135
f 406/202/136 407/203/136 408/204/136
f 409/205/137 410/206/137 411/207/137
f 412/208/138 413/195/138 414/194/138
f 415/205/139 416/209/139 417/206/139
f 418/210/140 419/196/140 420/211/140
f 421/210/141 422/211/141 423/212/141
f 424/212/142 425/211/142 426/208/142
f 427/213/143 428/214/143 429/215/143
f 430/216/144 431/217/144 432/218/144
f 433/27/145 434/9/145 435/8/145
f 436/29/146 437/12/146 438/11/146
f 439/163/147 440/162/147 441/219/147
f 442/163/148 443/219/148 444/22/148
f 445/220/149 446/221/149 447/222/149
f 448/15/150 449/14/150 450/25/150
f 451/162/151 452/32/151 453/219/151
f 454/21/152 455/16/152 456/15/152
f 457/22/153 458/219/153 459/23/153
f 460/223/154 461/202/154 462/204/154
f 463/5/155 464/23/155 465/6/155
f 466/219/156 467/32/156 468/41/156
f 469/219/157 470/41/157 471/23/157
f 472/162/158 473/27/158 474/28/158
f 475/162/159 476/28/159 477/32/159
f 478/26/160 479/21/160 480/35/160
f 481/23/161 482/41/161 483/36/161
f 484/24/162 485/26/162 486/11/162
f 487/25/163 488/23/163 489/36/163
f 490/25/164 491/36/164 492/33/164
f 493/15/165 494/25/165 495/34/165
f 496/21/166 497/15/166 498/35/166
f 499/36/167 500/51/167 501/37/167
f 502/36/168 503/42/168 504/51/168
f 505/28/169 506/8/169 507/44/169
f 508/224/170 509/45/170 510/47/170
f 511/3/171 512/2/171 513/203/171
f 514/30/172 515/11/172 516/48/172
f 517/31/173 518/44/173 519/54/173
f 520/35/174 521/34/174 522/49/174
s 1
f 523/42/175 524/54/175 525/55/175
s 0
f 526/42/176 527/55/176 528/51/176
f 529/26/177 530/49/177 531/48/177
s 1
f 532/44/178 533/8/178 534/50/178
s 0
f 535/37/179 536/52/179 537/43/179
f 538/49/180 539/43/180 540/57/180
f 541/30/181 542/48/181 543/56/181
f 544/55/182 545/53/182 546/60/182
f 547/64/183 548/55/183 549/61/183
f 550/58/184 551/64/184 552/65/184
f 553/56/185 554/80/185 555/30/185
f 556/63/186 557/65/186 558/77/186
f 559/62/187 560/50/187 561/66/187
f 562/63/188 563/78/188 564/68/188
f 565/60/189 566/62/189 567/67/189
f 568/76/190 569/74/190 570/225/190
f 571/75/191 572/67/191 573/82/191
f 574/226/192 575/227/192 576/228/192
f 577/208/193 578/211/193 579/195/193
f 580/88/194 581/229/194 582/83/194
f 583/77/195 584/88/195 585/84/195
f 586/230/196 587/85/196 588/92/196
f 589/230/197 590/92/197 591/79/197
f 592/30/198 593/80/198 594/86/198
f 595/50/199 596/90/199 597/66/199
f 598/85/200 599/84/200 600/91/200
f 601/89/201 602/83/201 603/98/201
f 604/66/202 605/90/202 606/81/202
f 607/231/203 608/124/203 609/232/203
f 610/92/204 611/97/204 612/106/204
f 613/93/205 614/81/205 615/104/205
f 616/108/206 617/89/206 618/99/206
f 619/97/207 620/110/207 621/106/207
f 622/92/208 623/106/208 624/94/208
f 625/100/209 626/108/209 627/109/209
f 628/100/210 629/109/210 630/101/210
f 631/97/211 632/103/211 633/110/211
f 634/106/212 635/110/212 636/107/212
f 637/98/213 638/93/213 639/105/213
f 640/99/214 641/98/214 642/105/214
f 643/104/215 644/81/215 645/102/215
f 646/110/216 647/111/216 648/112/216
f 649/105/217 650/104/217 651/117/217
f 652/99/218 653/105/218 654/114/218
f 655/86/219 656/94/219 657/107/219
f 658/109/220 659/99/220 660/115/220
f 661/117/221 662/104/221 663/116/221
f 664/233/222 665/226/222 666/234/222
f 667/109/223 668/115/223 669/127/223
f 670/235/224 671/204/224 672/236/224
f 673/115/225 674/237/225 675/128/225
f 676/127/226 677/115/226 678/128/226
f 679/90/227 680/238/227 681/102/227
f 682/103/228 683/109/228 684/127/228
f 685/237/229 686/125/229 687/126/229
f 688/237/230 689/126/230 690/128/230
f 691/107/231 692/132/231 693/119/231
f 694/86/232 695/130/232 696/87/232
f 697/127/233 698/129/233 699/120/233
f 700/121/234 701/120/234 702/133/234
f 703/119/235 704/132/235 705/134/235
f 706/220/236 707/222/236 708/239/236
f 709/102/237 710/238/237 711/116/237
f 712/132/238 713/121/238 714/133/238
f 715/240/239 716/138/239 717/12/239
f 718/143/240 719/139/240 720/140/240
f 721/151/241 722/241/241 723/150/241
f 724/139/242 725/242/242 726/147/242
f 727/153/243 728/152/243 729/141/243
f 730/143/244 731/148/244 732/144/244
f 733/138/245 734/146/245 735/156/245
f 736/151/246 737/150/246 738/152/246
f 739/146/247 740/136/247 741/243/247
f 742/146/248 743/243/248 744/156/248
f 745/150/249 746/149/249 747/152/249
f 748/243/250 749/13/250 750/16/250
f 751/156/251 752/243/251 753/16/251
f 754/149/252 755/157/252 756/158/252
f 757/118/253 758/244/253 759/73/253
s 1
f 760/124/254 761/123/254 762/232/254
s 0
f 763/155/255 764/164/255 765/243/255
f 766/157/256 767/245/256 768/4/256
f 769/12/257 770/156/257 771/10/257
f 772/243/258 773/164/258 774/13/258
f 775/148/259 776/27/259 777/162/259
f 778/148/260 779/163/260 780/157/260
f 781/156/261 782/20/261 783/10/261
f 784/158/262 785/4/262 786/6/262
f 787/16/263 788/13/263 789/14/263
f 790/157/264 791/163/264 792/22/264
f 793/157/265 794/22/265 795/245/265
f 796/246/266 797/247/266 798/248/266
f 799/177/267 800/249/267 801/175/267
f 802/173/268 803/172/268 804/250/268
f 805/173/269 806/250/269 807/174/269
f 808/177/270 809/176/270 810/251/270
f 811/178/271 812/252/271 813/179/271
f 814/253/272 815/254/272 816/255/272
f 817/256/273 818/253/273 819/255/273
f 820/186/274 821/257/274 822/189/274
f 823/258/275 824/191/275 825/190/275
f 826/190/276 827/192/276 828/259/276
f 829/260/277 830/194/277 831/196/277
f 832/96/278 833/95/278 834/209/278
f 835/235/279 836/223/279 837/204/279
f 838/202/280 839/3/280 840/203/280
f 841/197/281 842/261/281 843/201/281
f 844/210/282 845/260/282 846/196/282
f 847/71/283 848/70/283 849/95/283
f 850/205/284 851/96/284 852/209/284
f 853/215/285 854/214/285 855/244/285
f 856/118/286 857/215/286 858/244/286
s 1
f 859/47/287 860/262/287 861/263/287
f 859/47/287 861/263/287 862/224/287
f 863/264/288 864/265/288 865/266/289
f 863/264/288 865/266/289 866/267/288
f 867/64/290 868/58/290 869/52/290
f 867/64/290 869/52/290 870/55/290
f 871/268/291 872/70/291 873/69/291
f 871/268/291 873/69/291 874/269/292
f 875/270/293 876/228/294 877/265/295
f 875/270/293 877/265/295 878/264/294
f 879/271/296 880/272/296 881/273/296
f 879/271/296 881/273/296 882/274/296
f 883/271/297 884/274/297 885/218/297
f 883/271/297 885/218/297 886/217/297
f 887/275/298 888/276/299 889/200/299
f 887/275/298 889/200/299 890/199/299
f 891/277/300 892/267/301 893/266/300
f 891/277/300 893/266/300 894/278/300
f 895/230/302 896/68/302 897/78/303
f 895/230/302 897/78/303 898/85/303
f 899/193/304 900/39/304 901/38/304
f 899/193/304 901/38/304 902/161/305
f 903/93/306 904/98/307 905/83/308
f 903/93/306 905/83/308 906/82/306
f 907/92/309 908/94/310 909/80/311
f 907/92/309 909/80/311 910/79/311
f 911/270/312 912/234/312 913/226/312
f 911/270/312 913/226/312 914/228/312
f 915/279/313 916/280/314 917/263/315
f 915/279/313 917/263/315 918/262/316
f 919/201/317 920/261/318 921/281/317
f 919/201/317 921/281/317 922/281/317
f 923/2/319 924/1/320 925/235/320
f 923/2/319 925/235/320 926/236/321
f 927/234/322 928/277/322 929/278/322
f 927/234/322 929/278/322 930/233/323
f 931/127/324 932/120/324 933/111/325
f 931/127/324 933/111/325 934/103/325
f 935/131/326 936/282/327 937/113/328
f 935/131/326 937/113/328 938/117/327
f 939/282/329 940/283/329 941/126/329
f 939/282/329 941/126/329 942/113/329
f 943/153/330 944/141/331 945/135/332
f 943/153/330 945/135/332 946/284/330
f 947/150/333 948/241/333 949/145/333
f 947/150/333 949/145/333 950/144/333
f 951/155/334 952/243/335 953/136/335
f 951/155/334 953/136/335 954/141/336
f 955/160/337 956/159/337 957/40/338
f 955/160/337 957/40/338 958/39/338
f 959/285/339 960/199/340 961/198/340
f 959/285/339 961/198/340 962/286/339
f 963/232/341 964/222/342 965/221/341
f 963/232/341 965/221/341 966/231/343
f 967/275/344 968/285/345 969/286/344
f 967/275/344 969/286/344 970/276/344
f 971/279/346 972/46/346 973/45/346
f 971/279/346 973/45/346 974/280/346
f 975/225/347 976/214/348 977/213/348
f 975/225/347 977/213/348 978/76/347
f 979/123/349 980/122/350 981/220/350
f 979/123/349 981/220/350 982/239/350
f 983/268/351 984/269/352 985/207/353
f 983/268/351 985/207/353 986/206/353
