# Blender 5.1.1
# www.blender.org
mtllib spaceship.mtl
o Cube_0
v 6.397350 -1.389510 3.502171
v 2.741720 3.910201 0.784770
v 2.741720 3.910200 -3.262991
v 6.397350 -1.389511 -4.230680
v 6.397350 -1.389511 -4.230680
v 2.741720 3.910200 -3.262991
v 3.655630 3.549560 -2.525211
v 7.479190 -1.198260 -2.805860
v 7.479190 -1.198260 -2.805860
v 3.655630 3.549560 -2.525211
v 3.655630 3.549561 0.046980
v 7.479190 -1.198260 2.285930
v 2.741720 3.910201 0.784770
v 6.397350 -1.389510 3.502171
v 7.479190 -1.198260 2.285930
v 3.655630 3.549561 0.046980
v -6.397350 -1.389510 3.502171
v -7.479190 -1.198260 2.285930
v -5.026490 -3.571890 1.114641
v 3.655630 3.549560 -2.525211
v 2.741720 3.910200 -3.262991
v 2.741720 3.910201 0.784770
v 3.655630 3.549561 0.046980
v -1.000000 -0.265760 0.000000
v -2.230080 -1.210690 4.000000
v -1.190250 0.866841 4.669240
v 1.000000 -0.265760 0.000000
v 0.774160 -1.258520 0.632510
v 1.260340 -1.903860 -1.434600
v 0.556270 1.106570 -1.854700
v 0.723170 1.465200 0.649490
v 5.438190 0.000000 1.507320
v 5.440220 -0.000000 -1.000000
v 1.000000 -0.265760 0.000000
v 2.230080 -1.210690 4.000000
v -2.230080 -1.210690 4.000000
v -1.000000 -0.265760 0.000000
v -1.000000 -0.265760 0.000000
v -5.438840 0.000000 1.507320
v -6.123190 -1.000000 -2.000000
v 1.000000 -0.735340 -3.000000
v 0.556270 1.106570 -1.854700
v 5.440220 -0.000000 -1.000000
v 1.000000 -0.735340 -3.000000
v 1.400000 -1.041551 -5.000000
v 1.000000 0.999999 -5.000000
v 1.000000 -0.265760 0.000000
v 1.000000 -0.735340 -3.000000
v 6.127940 -1.000000 -2.000000
v 2.230080 -1.210690 4.000000
v 1.190250 0.866841 4.669240
v 1.000000 -0.870589 7.000001
v -1.000000 -1.532699 6.118371
v -2.230080 -1.210690 4.000000
v 2.230080 -1.210690 4.000000
v 1.000000 -1.532699 6.118371
v -6.397350 -1.389510 3.502171
v -6.397350 -1.389511 -4.230680
v -2.741720 3.910200 -3.262991
v -2.741720 3.910201 0.784770
v -6.397350 -1.389511 -4.230680
v -7.479190 -1.198260 -2.805860
v -3.655630 3.549560 -2.525211
v -2.741720 3.910200 -3.262991
v -7.479190 -1.198260 -2.805860
v -7.479190 -1.198260 2.285930
v -3.655630 3.549561 0.046980
v -3.655630 3.549560 -2.525211
v -7.479190 -1.198260 2.285930
v -6.397350 -1.389510 3.502171
v -2.741720 3.910201 0.784770
v -3.655630 3.549561 0.046980
v 7.479190 -1.198260 2.285930
v 6.397350 -1.389510 3.502171
v 5.026490 -3.571890 1.114641
v -3.655630 3.549560 -2.525211
v -3.655630 3.549561 0.046980
v -2.741720 3.910201 0.784770
v -2.741720 3.910200 -3.262991
v -0.723170 1.465200 0.649490
v -1.000000 -0.265760 0.000000
v -1.190250 0.866841 4.669240
v 0.723170 1.465200 0.649490
v 0.556270 1.106570 -1.854700
v -0.556270 1.106570 -1.854700
v -0.723170 1.465200 0.649490
v -0.556270 1.106570 -1.854700
v -5.435460 -0.000000 -1.000000
v -5.438840 0.000000 1.507320
v -0.723170 1.465200 0.649490
v 1.000000 -0.735340 -3.000000
v -1.000000 -0.735340 -3.000000
v -1.400000 -1.041551 -5.000000
v 1.400000 -1.041551 -5.000000
v -1.000000 -1.532699 6.118371
v 1.000000 -1.532699 6.118371
v 1.000000 -0.870589 7.000001
v -1.000000 -0.870589 7.000001
v 5.438190 0.000000 1.507320
v 1.000000 -0.265760 0.000000
v 6.127940 -1.000000 -2.000000
v -1.000000 -0.735340 -3.000000
v -1.000000 -0.265760 0.000000
v -6.123190 -1.000000 -2.000000
v -1.000000 -0.735340 -3.000000
v -6.123190 -1.000000 -2.000000
v -5.435460 -0.000000 -1.000000
v -1.000000 0.999999 -5.000000
v -1.400000 -1.041551 -5.000000
v -1.000000 -0.735340 -3.000000
v 1.190250 0.866841 4.669240
v 0.723170 1.465200 0.649490
v -0.723170 1.465200 0.649490
v -1.190250 0.866841 4.669240
v -2.230080 -1.210690 4.000000
v -1.000000 -1.532699 6.118371
v -1.000000 -0.870589 7.000001
v -1.000000 -0.870589 7.000001
v 1.000000 -0.870589 7.000001
v 1.190250 0.866841 4.669240
v -1.190250 0.866841 4.669240
v -0.556270 1.106570 -1.854700
v 0.556270 1.106570 -1.854700
v 1.000000 2.000000 -4.000001
v -1.000000 2.000000 -4.000001
v 0.526620 1.999999 -6.000001
v -0.526620 1.999999 -6.000001
v -1.000000 2.000000 -4.000001
v 1.000000 2.000000 -4.000001
v 0.526620 1.999999 -6.000001
v 1.000000 0.999999 -5.000000
v -1.000000 0.999999 -5.000000
v -0.526620 1.999999 -6.000001
v -1.400000 -1.041551 -5.000000
v -1.000000 0.999999 -5.000000
v -0.603490 0.645839 -4.601991
v -0.844880 -0.714551 -4.601991
v 1.000000 0.999999 -5.000000
v 1.000000 2.000000 -4.000001
v 0.556270 1.106570 -1.854700
v 0.723170 1.465200 0.649490
v 1.000000 -0.265760 0.000000
v 5.438190 0.000000 1.507320
v 1.000000 0.999999 -5.000000
v 0.526620 1.999999 -6.000001
v 3.534910 2.462239 -7.465431
v 0.526620 1.999999 -6.000001
v 1.000000 2.000000 -4.000001
v 3.534910 2.462239 -7.465431
v -1.000000 0.999999 -5.000000
v -0.556270 1.106570 -1.854700
v -1.000000 2.000000 -4.000001
v -1.000000 2.000000 -4.000001
v -0.526620 1.999999 -6.000001
v -3.534910 2.462239 -7.465431
v -0.723170 1.465200 0.649490
v -5.438840 0.000000 1.507320
v -1.000000 -0.265760 0.000000
v -1.000000 0.999999 -5.000000
v -1.000000 2.000000 -4.000001
v -3.534910 2.462239 -7.465431
v 6.127940 -1.000000 -2.000000
v 1.000000 -0.735340 -3.000000
v 5.440220 -0.000000 -1.000000
v -0.556270 1.106570 -1.854700
v -1.000000 -0.735340 -3.000000
v -5.435460 -0.000000 -1.000000
v 6.397350 -1.389511 -4.230680
v 7.479190 -1.198260 -2.805860
v 5.026490 -3.571891 -5.654300
v -7.479190 -1.198260 -2.805860
v -6.397350 -1.389511 -4.230680
v -5.026490 -3.571891 -5.654300
v 6.397350 -1.389510 3.502171
v 6.397350 -1.389511 -4.230680
v 5.026490 -3.571891 -5.654300
v 5.026490 -3.571890 1.114641
v -6.397350 -1.389511 -4.230680
v -6.397350 -1.389510 3.502171
v -5.026490 -3.571890 1.114641
v -5.026490 -3.571891 -5.654300
v 7.479190 -1.198260 -2.805860
v 7.479190 -1.198260 2.285930
v 5.026490 -3.571890 1.114641
v 5.026490 -3.571891 -5.654300
v -7.479190 -1.198260 2.285930
v -7.479190 -1.198260 -2.805860
v -5.026490 -3.571891 -5.654300
v -5.026490 -3.571890 1.114641
v 1.000000 0.999999 -5.000000
v 3.534910 2.462239 -7.465431
v 1.000000 2.000000 -4.000001
v -0.526620 1.999999 -6.000001
v -1.000000 0.999999 -5.000000
v -3.534910 2.462239 -7.465431
v 1.000000 -1.532699 6.118371
v 2.230080 -1.210690 4.000000
v 1.000000 -0.870589 7.000001
v -1.190250 0.866841 4.669240
v -2.230080 -1.210690 4.000000
v -1.000000 -0.870589 7.000001
v 2.230080 -1.210690 4.000000
v 1.000000 -0.265760 0.000000
v 1.190250 0.866841 4.669240
v 0.556270 1.106570 -1.854700
v 1.000000 -0.735340 -3.000000
v 1.000000 0.999999 -5.000000
v -0.556270 1.106570 -1.854700
v -1.000000 0.999999 -5.000000
v -1.000000 -0.735340 -3.000000
v -0.774160 -1.258520 0.632510
v -1.260340 -1.903860 -1.434600
v 1.260340 -1.903860 -1.434600
v 0.774160 -1.258520 0.632510
v -1.000000 -0.735340 -3.000000
v 1.000000 -0.735340 -3.000000
v 1.260340 -1.903860 -1.434600
v -1.260340 -1.903860 -1.434600
v 1.000000 -0.265760 0.000000
v -1.000000 -0.265760 0.000000
v -0.774160 -1.258520 0.632510
v 0.774160 -1.258520 0.632510
v -1.000000 -0.265760 0.000000
v -1.000000 -0.735340 -3.000000
v -1.260340 -1.903860 -1.434600
v 1.000000 -0.735340 -3.000000
v 1.000000 -0.265760 0.000000
v 1.260340 -1.903860 -1.434600
v -0.774160 -1.258520 0.632510
v -1.000000 -0.265760 0.000000
v -1.260340 -1.903860 -1.434600
v 0.844880 -0.714551 -4.601991
v -0.844880 -0.714551 -4.601991
v -0.603490 0.645839 -4.601991
v 0.603490 0.645839 -4.601991
v 1.000000 0.999999 -5.000000
v 1.400000 -1.041551 -5.000000
v 0.844880 -0.714551 -4.601991
v 0.603490 0.645839 -4.601991
v -1.000000 0.999999 -5.000000
v 1.000000 0.999999 -5.000000
v 0.603490 0.645839 -4.601991
v -0.603490 0.645839 -4.601991
v 1.400000 -1.041551 -5.000000
v -1.400000 -1.041551 -5.000000
v -0.844880 -0.714551 -4.601991
v 0.844880 -0.714551 -4.601991
v 1.000000 -0.265760 0.000000
v 0.723170 1.465200 0.649490
v 1.190250 0.866841 4.669240
vn -0.5487 -0.7496 0.3702
vn -0.8634 0.4811 -0.1519
vn 0.9670 -0.0626 0.2470
vn 0.0334 -0.9628 0.2680
vn 0.2637 0.5544 -0.7894
vn 0.9680 0.1897 0.1646
vn -0.0809 -0.9847 0.1541
vn 0.8836 0.3379 0.3240
vn 0.5487 -0.7496 0.3702
vn -0.9783 0.1886 -0.0856
vn -0.0334 -0.9629 0.2680
vn 0.0810 -0.9847 0.1541
vn -0.1636 0.7516 -0.6391
vn -0.9680 0.1897 0.1646
vn -0.7793 -0.5011 0.3763
vn 0.9793 -0.1430 0.1430
vn -0.2777 -0.3761 0.8840
vn -0.2001 -0.7385 -0.6438
vn -0.1364 0.9901 0.0323
vn -0.9793 -0.1430 0.1430
vn 0.1364 0.9901 0.0323
vn 0.2777 -0.3761 0.8840
vn -0.7386 -0.4767 0.4767
vn 0.1634 0.7515 -0.6391
vn -0.2640 0.5544 -0.7893
vn 0.7985 -0.1163 -0.5907
vn -0.7985 -0.1163 -0.5907
vn 0.7386 -0.4767 0.4767
vn 0.2001 -0.7385 -0.6438
vn 0.7793 -0.5011 0.3763
vn -0.8837 0.3379 0.3240
vn 0.8634 0.4811 -0.1519
vn 0.9792 0.1532 0.1330
vn -0.9792 0.1532 0.1330
vn -0.9831 0.1811 -0.0283
vn 0.9831 0.1811 -0.0283
vn -0.9670 -0.0626 0.2470
vn 0.9783 0.1886 -0.0856
vn -0.8232 -0.5678 -0.0000
vn 0.6380 0.5428 -0.5463
vn 0.6380 0.5428 -0.5462
vn 0.7788 0.6272 -0.0000
vn 0.5526 0.6615 0.5070
vn 0.5526 0.6615 0.5071
vn 0.3671 0.9302 -0.0000
vn 0.2709 0.9595 -0.0776
vn 0.2709 0.9595 -0.0775
vn -0.0000 -0.9732 -0.2299
vn -0.0000 -0.9886 -0.1503
vn 0.8232 -0.5678 -0.0000
vn -0.6380 0.5428 -0.5463
vn -0.6380 0.5428 -0.5462
vn -0.7788 0.6272 -0.0000
vn -0.5526 0.6615 0.5071
vn -0.5526 0.6615 0.5070
vn -0.3671 0.9302 -0.0000
vn -0.0000 0.9899 -0.1418
vn -0.2711 0.9594 -0.0779
vn -0.2710 0.9594 -0.0778
vn -0.2710 0.9594 -0.0779
vn -0.0000 -0.9885 0.1513
vn -0.0000 -0.7996 0.6005
vn -0.0000 0.9891 0.1472
vn -0.0000 0.8018 0.5977
vn -0.0000 0.9231 0.3845
vn -0.0000 1.0000 -0.0000
vn -0.0000 -0.7071 -0.7071
vn 0.6350 -0.1197 -0.7632
vn -0.8468 0.5319 -0.0000
vn 0.8468 0.5319 -0.0000
vn 0.6954 -0.7186 -0.0000
vn -0.6954 -0.7186 -0.0000
vn -0.0000 -0.9546 0.2980
vn -0.0000 -0.8014 -0.5982
vn -0.0000 0.5373 0.8434
vn -0.0000 -0.0000 -1.0000
vn -0.6350 -0.1197 -0.7632
vn -0.0000 -0.7471 -0.6648
vn -0.0000 0.7727 -0.6348
vt 0.125000 0.078120
vt 0.125000 0.117190
vt 0.015620 0.078120
vt 0.859380 0.585940
vt 0.859380 0.476560
vt 0.750000 0.476560
vt 0.593750 0.078120
vt 0.546880 0.078120
vt 0.593750 0.117190
vt 0.390620 0.851560
vt 0.390620 0.609380
vt 0.281250 0.609380
vt 0.789060 0.250000
vt 0.789060 0.210940
vt 0.546880 0.210940
vt 0.085940 0.007810
vt 0.125000 0.007810
vt 0.125000 0.046880
vt 0.523440 0.984380
vt 0.523440 0.875000
vt 0.281250 0.875000
vt 0.671880 0.875000
vt 0.781250 0.875000
vt 0.671880 0.984380
vt 0.007810 0.085940
vt 0.007810 0.125000
vt 0.117190 0.125000
vt 0.921880 0.476560
vt 0.882810 0.476560
vt 0.921880 0.585940
vt 0.273440 0.859380
vt 0.273440 0.617190
vt 0.382810 0.859380
vt 0.273440 0.992190
vt 0.273440 0.882810
vt 0.515620 0.992190
vt 0.234380 0.062500
vt 0.476560 0.062500
vt 0.476560 0.015620
vt 0.078120 0.015620
vt 0.078120 0.062500
vt 0.117190 0.062500
vt 0.921880 0.453120
vt 0.921880 0.343750
vt 0.882810 0.343750
vt 0.812500 0.609380
vt 0.859380 0.609380
vt 0.859380 0.718750
vt 0.750000 0.609380
vt 0.789060 0.609380
vt 0.789060 0.851560
vt 0.257810 0.117190
vt 0.257810 0.078120
vt 0.148440 0.078120
vt 0.390620 0.140620
vt 0.390620 0.187500
vt 0.281250 0.140620
vt 0.851560 0.726560
vt 0.804690 0.617190
vt 0.804690 0.726560
vt 0.273440 0.148440
vt 0.273440 0.195310
vt 0.382810 0.195310
vt 0.781250 0.859380
vt 0.742190 0.617190
vt 0.742190 0.859380
vt 0.914060 0.609380
vt 0.875000 0.609380
vt 0.875000 0.718750
vt 0.210940 0.007810
vt 0.453120 0.007810
vt 0.210940 0.054690
vt 0.726560 0.593750
vt 0.679690 0.593750
vt 0.726560 0.351560
vt 0.789060 0.140620
vt 0.789060 0.187500
vt 0.679690 0.140620
vt 0.671880 0.148440
vt 0.671880 0.195310
vt 0.781250 0.195310
vt 0.882810 0.726560
vt 0.921880 0.617190
vt 0.921880 0.726560
vt 0.140620 0.125000
vt 0.140620 0.085940
vt 0.250000 0.125000
vt 0.875000 0.460940
vt 0.875000 0.351560
vt 0.914060 0.460940
vt 0.679690 0.992190
vt 0.789060 0.992190
vt 0.789060 0.882810
vt 0.742190 0.593750
vt 0.742190 0.484380
vt 0.851560 0.593750
vt 0.390620 0.117190
vt 0.390620 0.078120
vt 0.281250 0.078120
vt 0.273440 0.085940
vt 0.382810 0.125000
vt 0.273440 0.125000
vt 0.859380 0.187500
vt 0.812500 0.140620
vt 0.859380 0.140620
vt 0.851560 0.195310
vt 0.804690 0.148440
vt 0.804690 0.195310
vt 0.585940 0.125000
vt 0.539060 0.125000
vt 0.539060 0.085940
vt 0.914060 0.593750
vt 0.875000 0.593750
vt 0.875000 0.484380
vt 0.257810 0.992190
vt 0.007810 0.992190
vt 0.007810 0.742190
vt 0.257810 0.742190
vt 0.539060 0.273440
vt 0.789060 0.273440
vt 0.789060 0.328120
vt 0.539060 0.328120
vt 0.656250 0.742190
vt 0.656250 0.992190
vt 0.539060 0.992190
vt 0.539060 0.742190
vt 0.257810 0.195310
vt 0.007810 0.195310
vt 0.007810 0.140620
vt 0.257810 0.140620
vt 0.859380 0.328120
vt 0.804690 0.328120
vt 0.804690 0.210940
vt 0.859380 0.210940
vt 0.523440 0.476560
vt 0.523440 0.593750
vt 0.273440 0.593750
vt 0.273440 0.476560
vt 0.656250 0.460940
vt 0.539060 0.460940
vt 0.539060 0.343750
vt 0.656250 0.343750
vt 0.859380 0.460940
vt 0.742190 0.460940
vt 0.742190 0.343750
vt 0.859380 0.343750
vt 0.257810 0.726560
vt 0.007810 0.726560
vt 0.007810 0.476560
vt 0.257810 0.476560
vt 0.859380 0.992190
vt 0.804690 0.992190
vt 0.804690 0.742190
vt 0.859380 0.742190
vt 0.257810 0.210940
vt 0.257810 0.328120
vt 0.007810 0.328120
vt 0.007810 0.210940
vt 0.726560 0.859380
vt 0.671880 0.859380
vt 0.671880 0.609380
vt 0.726560 0.609380
vt 0.406250 0.078120
vt 0.523440 0.078120
vt 0.523440 0.125000
vt 0.406250 0.125000
vt 0.921880 0.210940
vt 0.921880 0.328120
vt 0.875000 0.328120
vt 0.875000 0.210940
vt 0.273440 0.210940
vt 0.523440 0.210940
vt 0.523440 0.328120
vt 0.273440 0.328120
vt 0.921880 0.742190
vt 0.921880 0.859380
vt 0.875000 0.859380
vt 0.875000 0.742190
vt 0.992190 0.859380
vt 0.937500 0.859380
vt 0.937500 0.804690
vt 0.992190 0.804690
vt 0.539060 0.140620
vt 0.656250 0.140620
vt 0.656250 0.195310
vt 0.539060 0.195310
vt 0.921880 0.992190
vt 0.875000 0.992190
vt 0.875000 0.875000
vt 0.921880 0.875000
vt 0.523440 0.140620
vt 0.523440 0.195310
vt 0.406250 0.195310
vt 0.406250 0.140620
vt 0.992190 0.921880
vt 0.937500 0.921880
vt 0.937500 0.875000
vt 0.992190 0.875000
vt 0.062500 0.062500
vt 0.007810 0.062500
vt 0.007810 0.007810
vt 0.062500 0.007810
vt 0.992190 0.992190
vt 0.937500 0.992190
vt 0.937500 0.937500
vt 0.992190 0.937500
vt 0.656250 0.476560
vt 0.656250 0.726560
vt 0.539060 0.726560
vt 0.539060 0.476560
vt 0.007810 0.343750
vt 0.257810 0.343750
vt 0.257810 0.460940
vt 0.007810 0.460940
vt 0.523440 0.609380
vt 0.523440 0.859380
vt 0.406250 0.859380
vt 0.406250 0.609380
vt 0.273440 0.343750
vt 0.523440 0.343750
vt 0.523440 0.460940
vt 0.273440 0.460940
vt 0.921880 0.125000
vt 0.875000 0.125000
vt 0.875000 0.078120
vt 0.921880 0.078120
vt 0.921880 0.195310
vt 0.875000 0.195310
vt 0.875000 0.140620
vt 0.921880 0.140620
vt 0.859380 0.125000
vt 0.804690 0.125000
vt 0.804690 0.078120
vt 0.859380 0.078120
vt 0.789060 0.125000
vt 0.742190 0.125000
vt 0.742190 0.078120
vt 0.789060 0.078120
vt 0.726560 0.125000
vt 0.671880 0.125000
vt 0.671880 0.078120
vt 0.726560 0.078120
vt 0.195310 0.062500
vt 0.140620 0.062500
vt 0.140620 0.007810
vt 0.195310 0.007810
vt 0.656250 0.125000
vt 0.609380 0.125000
vt 0.609380 0.078120
vt 0.656250 0.078120
s 0
usemtl Material.001
f 17/1/1 18/2/1 19/3/1
f 24/4/2 25/5/2 26/6/2
f 27/7/3 28/8/3 29/9/3
f 38/10/4 39/11/4 40/12/4
f 41/13/5 42/14/5 43/15/5
f 44/16/6 45/17/6 46/18/6
f 47/19/7 48/20/7 49/21/7
f 50/22/8 51/23/8 52/24/8
f 73/25/9 74/26/9 75/27/9
f 80/28/10 81/29/10 82/30/10
f 99/31/11 100/32/11 101/33/11
f 102/34/12 103/35/12 104/36/12
f 105/37/13 106/38/13 107/39/13
f 108/40/14 109/41/14 110/42/14
f 115/43/15 116/44/15 117/45/15
f 138/46/16 139/47/16 140/48/16
f 141/49/17 142/50/17 143/51/17
f 144/52/18 145/53/18 146/54/18
f 147/55/19 148/56/19 149/57/19
f 150/58/20 151/59/20 152/60/20
f 153/61/21 154/62/21 155/63/21
f 156/64/22 157/65/22 158/66/22
f 159/67/23 160/68/23 161/69/23
f 162/70/24 163/71/24 164/72/24
f 165/73/25 166/74/25 167/75/25
f 168/76/26 169/77/26 170/78/26
f 171/79/27 172/80/27 173/81/27
f 190/82/28 191/83/28 192/84/28
f 193/85/29 194/86/29 195/87/29
f 196/88/30 197/89/30 198/90/30
f 199/91/31 200/92/31 201/93/31
f 202/94/32 203/95/32 204/96/32
f 205/97/33 206/98/33 207/99/33
f 208/100/34 209/101/34 210/102/34
f 223/103/35 224/104/35 225/105/35
f 226/106/36 227/107/36 228/108/36
f 229/109/37 230/110/37 231/111/37
f 248/112/38 249/113/38 250/114/38
f 1/115/39 2/116/39 3/117/39
s 1
f 1/115/39 3/117/39 4/118/39
f 5/119/40 6/120/41 7/121/41
f 5/119/40 7/121/41 8/122/41
s 0
f 9/123/42 10/124/42 11/125/42
f 9/123/42 11/125/42 12/126/42
s 1
f 13/127/43 14/128/43 15/129/44
f 13/127/43 15/129/44 16/130/43
s 0
f 20/131/45 21/132/45 22/133/45
f 20/131/45 22/133/45 23/134/45
s 1
f 30/135/46 31/136/46 32/137/46
f 30/135/46 32/137/46 33/138/47
s 0
f 34/139/48 35/140/48 36/141/48
f 34/139/48 36/141/48 37/142/48
f 53/143/49 54/144/49 55/145/49
f 53/143/49 55/145/49 56/146/49
s 1
f 57/147/50 58/148/50 59/149/50
s 0
f 57/147/50 59/149/50 60/150/50
s 1
f 61/151/51 62/152/52 63/153/52
f 61/151/51 63/153/52 64/154/52
s 0
f 65/155/53 66/156/53 67/157/53
f 65/155/53 67/157/53 68/158/53
s 1
f 69/159/54 70/160/55 71/161/55
f 69/159/54 71/161/55 72/162/55
s 0
f 76/163/56 77/164/56 78/165/56
f 76/163/56 78/165/56 79/166/56
f 83/167/57 84/168/57 85/169/57
f 83/167/57 85/169/57 86/170/57
s 1
f 87/171/58 88/172/59 89/173/60
f 87/171/58 89/173/60 90/174/58
s 0
f 91/175/61 92/176/61 93/177/61
f 91/175/61 93/177/61 94/178/61
f 95/179/62 96/180/62 97/181/62
f 95/179/62 97/181/62 98/182/62
f 111/183/63 112/184/63 113/185/63
f 111/183/63 113/185/63 114/186/63
f 118/187/64 119/188/64 120/189/64
f 118/187/64 120/189/64 121/190/64
f 122/191/65 123/192/65 124/193/65
f 122/191/65 124/193/65 125/194/65
f 126/195/66 127/196/66 128/197/66
f 126/195/66 128/197/66 129/198/66
f 130/199/67 131/200/67 132/201/67
f 130/199/67 132/201/67 133/202/67
s 1
f 134/203/68 135/204/68 136/205/68
f 134/203/68 136/205/68 137/206/68
s 0
f 174/207/69 175/208/69 176/209/69
f 174/207/69 176/209/69 177/210/69
f 178/211/70 179/212/70 180/213/70
f 178/211/70 180/213/70 181/214/70
f 182/215/71 183/216/71 184/217/71
f 182/215/71 184/217/71 185/218/71
f 186/219/72 187/220/72 188/221/72
f 186/219/72 188/221/72 189/222/72
f 211/223/73 212/224/73 213/225/73
f 211/223/73 213/225/73 214/226/73
f 215/227/74 216/228/74 217/229/74
f 215/227/74 217/229/74 218/230/74
f 219/231/75 220/232/75 221/233/75
f 219/231/75 221/233/75 222/234/75
f 232/235/76 233/236/76 234/237/76
f 232/235/76 234/237/76 235/238/76
s 1
f 236/239/77 237/240/77 238/241/77
f 236/239/77 238/241/77 239/242/77
s 0
f 240/243/78 241/244/78 242/245/78
f 240/243/78 242/245/78 243/246/78
f 244/247/79 245/248/79 246/249/79
f 244/247/79 246/249/79 247/250/79
